<mxfile host="Electron" modified="2023-09-24T14:31:51.052Z" agent="Mozilla/5.0 (X11; Linux x86_64) AppleWebKit/537.36 (KHTML, like Gecko) draw.io/21.3.7 Chrome/112.0.5615.204 Electron/24.5.0 Safari/537.36" etag="sNN5OZgOWIc54Ziihquv" version="21.3.7" type="device" pages="12">
  <diagram name="System" id="2cBFG6wjWC_nUpKgnO3j">
    <mxGraphModel dx="1426" dy="862" grid="1" gridSize="10" guides="1" tooltips="1" connect="1" arrows="1" fold="1" page="1" pageScale="1" pageWidth="850" pageHeight="1100" math="0" shadow="0">
      <root>
        <mxCell id="0" />
        <mxCell id="1" parent="0" />
        <mxCell id="YFzQ6mCsyl1PYcWT0SgN-2" value="" style="endArrow=none;html=1;rounded=0;strokeWidth=3;endFill=0;dashed=1;fontFamily=Courier New;" parent="1" edge="1">
          <mxGeometry width="50" height="50" relative="1" as="geometry">
            <mxPoint x="80" y="390" as="sourcePoint" />
            <mxPoint x="670" y="390" as="targetPoint" />
          </mxGeometry>
        </mxCell>
        <mxCell id="YFzQ6mCsyl1PYcWT0SgN-5" value="Processus 1" style="text;html=1;strokeColor=#d79b00;fillColor=#ffe6cc;align=center;verticalAlign=middle;whiteSpace=wrap;rounded=0;fontFamily=Courier New;" parent="1" vertex="1">
          <mxGeometry y="330" width="80" height="30" as="geometry" />
        </mxCell>
        <mxCell id="YFzQ6mCsyl1PYcWT0SgN-6" value="Processus 2" style="text;html=1;strokeColor=#b85450;fillColor=#f8cecc;align=center;verticalAlign=middle;whiteSpace=wrap;rounded=0;fontFamily=Courier New;" parent="1" vertex="1">
          <mxGeometry y="290" width="80" height="30" as="geometry" />
        </mxCell>
        <mxCell id="YFzQ6mCsyl1PYcWT0SgN-9" value="" style="endArrow=none;html=1;rounded=0;strokeWidth=2;fillColor=#d5e8d4;strokeColor=#82b366;fontFamily=Courier New;" parent="1" edge="1">
          <mxGeometry width="50" height="50" relative="1" as="geometry">
            <mxPoint x="80" y="470" as="sourcePoint" />
            <mxPoint x="120" y="470" as="targetPoint" />
          </mxGeometry>
        </mxCell>
        <mxCell id="YFzQ6mCsyl1PYcWT0SgN-10" value="" style="endArrow=none;html=1;rounded=0;strokeWidth=2;fillColor=#dae8fc;strokeColor=#6c8ebf;fontFamily=Courier New;" parent="1" edge="1">
          <mxGeometry width="50" height="50" relative="1" as="geometry">
            <mxPoint x="120" y="430" as="sourcePoint" />
            <mxPoint x="200" y="430" as="targetPoint" />
          </mxGeometry>
        </mxCell>
        <mxCell id="YFzQ6mCsyl1PYcWT0SgN-11" value="BIOS" style="text;html=1;align=center;verticalAlign=middle;whiteSpace=wrap;rounded=0;fontFamily=Courier New;fillColor=#d5e8d4;strokeColor=#82b366;" parent="1" vertex="1">
          <mxGeometry y="450" width="80" height="30" as="geometry" />
        </mxCell>
        <mxCell id="YFzQ6mCsyl1PYcWT0SgN-12" value="Kernel" style="text;html=1;strokeColor=#6c8ebf;fillColor=#dae8fc;align=center;verticalAlign=middle;whiteSpace=wrap;rounded=0;fontFamily=Courier New;" parent="1" vertex="1">
          <mxGeometry y="410" width="80" height="30" as="geometry" />
        </mxCell>
        <mxCell id="YFzQ6mCsyl1PYcWT0SgN-13" value="" style="endArrow=open;html=1;rounded=0;dashed=1;endFill=0;strokeWidth=2;fillColor=#f5f5f5;strokeColor=#666666;fontFamily=Courier New;" parent="1" edge="1">
          <mxGeometry width="50" height="50" relative="1" as="geometry">
            <mxPoint x="120" y="470" as="sourcePoint" />
            <mxPoint x="120" y="430" as="targetPoint" />
          </mxGeometry>
        </mxCell>
        <mxCell id="YFzQ6mCsyl1PYcWT0SgN-14" value="jump" style="edgeLabel;html=1;align=center;verticalAlign=middle;resizable=0;points=[];fontFamily=Courier New;" parent="YFzQ6mCsyl1PYcWT0SgN-13" vertex="1" connectable="0">
          <mxGeometry x="-0.3241" relative="1" as="geometry">
            <mxPoint x="20" as="offset" />
          </mxGeometry>
        </mxCell>
        <mxCell id="YFzQ6mCsyl1PYcWT0SgN-15" value="Kernel space" style="text;html=1;strokeColor=none;fillColor=none;align=center;verticalAlign=middle;whiteSpace=wrap;rounded=0;fontStyle=1;fontFamily=Courier New;" parent="1" vertex="1">
          <mxGeometry x="560" y="400" width="100" height="40" as="geometry" />
        </mxCell>
        <mxCell id="YFzQ6mCsyl1PYcWT0SgN-16" value="User space" style="text;html=1;strokeColor=none;fillColor=none;align=center;verticalAlign=middle;whiteSpace=wrap;rounded=0;fontStyle=1;fontFamily=Courier New;" parent="1" vertex="1">
          <mxGeometry x="560" y="340" width="100" height="40" as="geometry" />
        </mxCell>
        <mxCell id="YFzQ6mCsyl1PYcWT0SgN-17" value="" style="endArrow=none;html=1;rounded=0;strokeWidth=2;fillColor=#ffe6cc;strokeColor=#d79b00;fontFamily=Courier New;" parent="1" edge="1">
          <mxGeometry width="50" height="50" relative="1" as="geometry">
            <mxPoint x="200" y="350" as="sourcePoint" />
            <mxPoint x="280" y="350" as="targetPoint" />
          </mxGeometry>
        </mxCell>
        <mxCell id="YFzQ6mCsyl1PYcWT0SgN-18" value="" style="endArrow=open;html=1;rounded=0;dashed=1;endFill=0;strokeWidth=2;fillColor=#f5f5f5;strokeColor=#666666;fontFamily=Courier New;" parent="1" edge="1">
          <mxGeometry width="50" height="50" relative="1" as="geometry">
            <mxPoint x="200" y="430" as="sourcePoint" />
            <mxPoint x="200" y="350" as="targetPoint" />
          </mxGeometry>
        </mxCell>
        <mxCell id="YFzQ6mCsyl1PYcWT0SgN-19" value="jump" style="edgeLabel;html=1;align=center;verticalAlign=middle;resizable=0;points=[];fontFamily=Courier New;" parent="YFzQ6mCsyl1PYcWT0SgN-18" vertex="1" connectable="0">
          <mxGeometry x="-0.3241" relative="1" as="geometry">
            <mxPoint x="20" as="offset" />
          </mxGeometry>
        </mxCell>
        <mxCell id="YFzQ6mCsyl1PYcWT0SgN-20" value="" style="endArrow=none;html=1;rounded=0;strokeWidth=2;fillColor=#f8cecc;strokeColor=#b85450;fontFamily=Courier New;" parent="1" edge="1">
          <mxGeometry width="50" height="50" relative="1" as="geometry">
            <mxPoint x="320" y="310" as="sourcePoint" />
            <mxPoint x="380" y="310" as="targetPoint" />
          </mxGeometry>
        </mxCell>
        <mxCell id="YFzQ6mCsyl1PYcWT0SgN-23" value="" style="endArrow=open;html=1;rounded=0;dashed=1;endFill=0;strokeWidth=2;fillColor=#f5f5f5;strokeColor=#666666;fontFamily=Courier New;" parent="1" edge="1">
          <mxGeometry width="50" height="50" relative="1" as="geometry">
            <mxPoint x="280" y="350" as="sourcePoint" />
            <mxPoint x="280" y="430" as="targetPoint" />
          </mxGeometry>
        </mxCell>
        <mxCell id="YFzQ6mCsyl1PYcWT0SgN-26" value="" style="endArrow=none;html=1;rounded=0;strokeWidth=2;fillColor=#dae8fc;strokeColor=#6c8ebf;fontFamily=Courier New;" parent="1" edge="1">
          <mxGeometry width="50" height="50" relative="1" as="geometry">
            <mxPoint x="280" y="430" as="sourcePoint" />
            <mxPoint x="320" y="430" as="targetPoint" />
          </mxGeometry>
        </mxCell>
        <mxCell id="YFzQ6mCsyl1PYcWT0SgN-29" value="" style="endArrow=open;html=1;rounded=0;dashed=1;endFill=0;strokeWidth=2;fillColor=#f5f5f5;strokeColor=#666666;fontFamily=Courier New;" parent="1" edge="1">
          <mxGeometry width="50" height="50" relative="1" as="geometry">
            <mxPoint x="320" y="430" as="sourcePoint" />
            <mxPoint x="320" y="310" as="targetPoint" />
          </mxGeometry>
        </mxCell>
        <mxCell id="YFzQ6mCsyl1PYcWT0SgN-31" value="" style="endArrow=none;html=1;rounded=0;strokeWidth=2;fillColor=#dae8fc;strokeColor=#6c8ebf;fontFamily=Courier New;" parent="1" edge="1">
          <mxGeometry width="50" height="50" relative="1" as="geometry">
            <mxPoint x="374" y="430" as="sourcePoint" />
            <mxPoint x="425" y="430" as="targetPoint" />
          </mxGeometry>
        </mxCell>
        <mxCell id="YFzQ6mCsyl1PYcWT0SgN-32" value="" style="endArrow=open;html=1;rounded=0;dashed=1;endFill=0;strokeWidth=2;fillColor=#f5f5f5;strokeColor=#666666;fontFamily=Courier New;" parent="1" edge="1">
          <mxGeometry width="50" height="50" relative="1" as="geometry">
            <mxPoint x="380" y="310" as="sourcePoint" />
            <mxPoint x="380" y="430" as="targetPoint" />
          </mxGeometry>
        </mxCell>
        <mxCell id="YFzQ6mCsyl1PYcWT0SgN-37" value="" style="endArrow=open;html=1;rounded=0;dashed=1;endFill=0;strokeWidth=2;fillColor=#f5f5f5;strokeColor=#666666;fontFamily=Courier New;" parent="1" edge="1">
          <mxGeometry width="50" height="50" relative="1" as="geometry">
            <mxPoint x="424" y="430" as="sourcePoint" />
            <mxPoint x="424" y="310" as="targetPoint" />
            <Array as="points">
              <mxPoint x="424" y="370" />
            </Array>
          </mxGeometry>
        </mxCell>
        <mxCell id="YFzQ6mCsyl1PYcWT0SgN-40" value="" style="endArrow=none;html=1;rounded=0;strokeWidth=2;fillColor=#dae8fc;strokeColor=#6c8ebf;fontFamily=Courier New;" parent="1" edge="1">
          <mxGeometry width="50" height="50" relative="1" as="geometry">
            <mxPoint x="502" y="430" as="sourcePoint" />
            <mxPoint x="542" y="430" as="targetPoint" />
          </mxGeometry>
        </mxCell>
        <mxCell id="YFzQ6mCsyl1PYcWT0SgN-41" value="" style="endArrow=open;html=1;rounded=0;dashed=1;endFill=0;strokeWidth=2;fillColor=#f5f5f5;strokeColor=#666666;fontFamily=Courier New;" parent="1" edge="1">
          <mxGeometry width="50" height="50" relative="1" as="geometry">
            <mxPoint x="503" y="310" as="sourcePoint" />
            <mxPoint x="503" y="430" as="targetPoint" />
          </mxGeometry>
        </mxCell>
        <mxCell id="YFzQ6mCsyl1PYcWT0SgN-43" value="" style="endArrow=open;html=1;rounded=0;endFill=0;strokeWidth=2;fontFamily=Courier New;" parent="1" edge="1">
          <mxGeometry width="50" height="50" relative="1" as="geometry">
            <mxPoint x="80" y="480" as="sourcePoint" />
            <mxPoint x="750" y="480" as="targetPoint" />
          </mxGeometry>
        </mxCell>
        <mxCell id="YFzQ6mCsyl1PYcWT0SgN-44" value="Temps" style="edgeLabel;html=1;align=center;verticalAlign=middle;resizable=0;points=[];fontFamily=Courier New;fontSize=16;" parent="YFzQ6mCsyl1PYcWT0SgN-43" vertex="1" connectable="0">
          <mxGeometry x="0.5958" relative="1" as="geometry">
            <mxPoint x="-74" y="20" as="offset" />
          </mxGeometry>
        </mxCell>
        <mxCell id="YFzQ6mCsyl1PYcWT0SgN-45" value="&lt;font&gt;Temporisateur&lt;/font&gt;" style="pointerEvents=1;shadow=0;dashed=0;html=1;strokeColor=#d79b00;fillColor=#ffe6cc;labelPosition=center;verticalLabelPosition=bottom;verticalAlign=top;align=center;outlineConnect=0;shape=mxgraph.veeam.cpu;fontFamily=Courier New;" parent="1" vertex="1">
          <mxGeometry x="190" y="518.2" width="44.8" height="44.8" as="geometry" />
        </mxCell>
        <mxCell id="YFzQ6mCsyl1PYcWT0SgN-48" value="" style="endArrow=open;html=1;rounded=0;endFill=0;strokeWidth=2;fontFamily=Courier New;" parent="1" edge="1">
          <mxGeometry width="50" height="50" relative="1" as="geometry">
            <mxPoint x="80" y="480" as="sourcePoint" />
            <mxPoint x="80" y="80" as="targetPoint" />
          </mxGeometry>
        </mxCell>
        <mxCell id="YFzQ6mCsyl1PYcWT0SgN-50" value="" style="pointerEvents=1;shadow=0;dashed=0;html=1;strokeColor=#23445d;fillColor=#bac8d3;labelPosition=center;verticalLabelPosition=bottom;verticalAlign=top;align=center;outlineConnect=0;shape=mxgraph.veeam.ram;fontFamily=Courier New;" parent="1" vertex="1">
          <mxGeometry x="640" y="220" width="98.4" height="40" as="geometry" />
        </mxCell>
        <mxCell id="YFzQ6mCsyl1PYcWT0SgN-52" value="" style="endArrow=oval;html=1;fontFamily=Courier New;endFill=0;dashed=1;dashPattern=1 2;fillColor=#fff2cc;strokeColor=#d6b656;curved=1;strokeWidth=3;" parent="1" source="YFzQ6mCsyl1PYcWT0SgN-45" edge="1">
          <mxGeometry width="50" height="50" relative="1" as="geometry">
            <mxPoint x="690" y="277" as="sourcePoint" />
            <mxPoint x="280" y="430" as="targetPoint" />
            <Array as="points">
              <mxPoint x="210" y="440" />
            </Array>
          </mxGeometry>
        </mxCell>
        <mxCell id="a1QZkg4GzdEWV9zU4bFa-26" value="" style="group;fontFamily=Courier New;" parent="1" vertex="1" connectable="0">
          <mxGeometry x="750" y="30" width="120" height="270" as="geometry" />
        </mxCell>
        <mxCell id="a1QZkg4GzdEWV9zU4bFa-1" style="edgeStyle=orthogonalEdgeStyle;rounded=0;orthogonalLoop=1;jettySize=auto;html=1;fontFamily=Courier New;strokeWidth=2;endArrow=open;endFill=0;fillColor=#ffe6cc;strokeColor=#d79b00;dashed=1;dashPattern=1 2;" parent="a1QZkg4GzdEWV9zU4bFa-26" source="a1QZkg4GzdEWV9zU4bFa-24" edge="1">
          <mxGeometry relative="1" as="geometry">
            <mxPoint x="60" y="43.2" as="targetPoint" />
          </mxGeometry>
        </mxCell>
        <mxCell id="a1QZkg4GzdEWV9zU4bFa-2" value="Libraries" style="rounded=0;whiteSpace=wrap;html=1;fontFamily=Courier New;fontStyle=1;fillColor=#f5f5f5;strokeColor=#666666;fontColor=#333333;" parent="a1QZkg4GzdEWV9zU4bFa-26" vertex="1">
          <mxGeometry y="54" width="120" height="21.6" as="geometry" />
        </mxCell>
        <mxCell id="a1QZkg4GzdEWV9zU4bFa-3" value="mmaps" style="rounded=0;whiteSpace=wrap;html=1;fontFamily=Courier New;fontStyle=1;fillColor=#f5f5f5;strokeColor=#666666;fontColor=#333333;" parent="a1QZkg4GzdEWV9zU4bFa-26" vertex="1">
          <mxGeometry y="81" width="120" height="21.6" as="geometry" />
        </mxCell>
        <mxCell id="a1QZkg4GzdEWV9zU4bFa-6" style="edgeStyle=orthogonalEdgeStyle;rounded=0;orthogonalLoop=1;jettySize=auto;html=1;fontFamily=Courier New;strokeWidth=2;endArrow=open;endFill=0;fillColor=#e1d5e7;strokeColor=#9673a6;dashed=1;dashPattern=1 2;exitX=0.5;exitY=0;exitDx=0;exitDy=0;entryX=0.5;entryY=1;entryDx=0;entryDy=0;" parent="a1QZkg4GzdEWV9zU4bFa-26" target="a1QZkg4GzdEWV9zU4bFa-3" edge="1">
          <mxGeometry relative="1" as="geometry">
            <mxPoint x="60" y="107" as="targetPoint" />
            <mxPoint x="60" y="137.4000000000001" as="sourcePoint" />
          </mxGeometry>
        </mxCell>
        <mxCell id="a1QZkg4GzdEWV9zU4bFa-7" value="&lt;font style=&quot;font-size: 12px;&quot;&gt;malloc&lt;/font&gt;" style="edgeLabel;html=1;align=center;verticalAlign=middle;resizable=0;points=[];fontColor=#B5739D;fontStyle=1;fontSize=12;fontFamily=Courier New;" parent="a1QZkg4GzdEWV9zU4bFa-6" vertex="1" connectable="0">
          <mxGeometry x="-0.1379" relative="1" as="geometry">
            <mxPoint y="3" as="offset" />
          </mxGeometry>
        </mxCell>
        <mxCell id="a1QZkg4GzdEWV9zU4bFa-8" value="" style="group;fontFamily=Courier New;" parent="a1QZkg4GzdEWV9zU4bFa-26" vertex="1" connectable="0">
          <mxGeometry y="140.4" width="120" height="21.6" as="geometry" />
        </mxCell>
        <mxCell id="a1QZkg4GzdEWV9zU4bFa-9" value="Heap" style="rounded=0;whiteSpace=wrap;html=1;fontFamily=Courier New;fontStyle=1;fillColor=#e1d5e7;strokeColor=#9673a6;" parent="a1QZkg4GzdEWV9zU4bFa-8" vertex="1">
          <mxGeometry width="120" height="21.6" as="geometry" />
        </mxCell>
        <mxCell id="a1QZkg4GzdEWV9zU4bFa-10" value="rw-" style="text;html=1;strokeColor=none;fillColor=none;align=center;verticalAlign=middle;whiteSpace=wrap;rounded=0;fontFamily=Courier New;" parent="a1QZkg4GzdEWV9zU4bFa-8" vertex="1">
          <mxGeometry x="75" width="45" height="21.6" as="geometry" />
        </mxCell>
        <mxCell id="a1QZkg4GzdEWV9zU4bFa-11" value="" style="group;fontFamily=Courier New;" parent="a1QZkg4GzdEWV9zU4bFa-26" vertex="1" connectable="0">
          <mxGeometry y="167.4" width="120" height="21.6" as="geometry" />
        </mxCell>
        <mxCell id="a1QZkg4GzdEWV9zU4bFa-12" value="Bss" style="rounded=0;whiteSpace=wrap;html=1;fontFamily=Courier New;fontStyle=1;fillColor=#e1d5e7;strokeColor=#9673a6;" parent="a1QZkg4GzdEWV9zU4bFa-11" vertex="1">
          <mxGeometry width="120" height="21.6" as="geometry" />
        </mxCell>
        <mxCell id="a1QZkg4GzdEWV9zU4bFa-13" value="rw-" style="text;html=1;strokeColor=none;fillColor=none;align=center;verticalAlign=middle;whiteSpace=wrap;rounded=0;fontFamily=Courier New;" parent="a1QZkg4GzdEWV9zU4bFa-11" vertex="1">
          <mxGeometry x="75" width="45" height="21.6" as="geometry" />
        </mxCell>
        <mxCell id="a1QZkg4GzdEWV9zU4bFa-14" value="" style="group;fontFamily=Courier New;" parent="a1QZkg4GzdEWV9zU4bFa-26" vertex="1" connectable="0">
          <mxGeometry y="194.4" width="120" height="21.6" as="geometry" />
        </mxCell>
        <mxCell id="a1QZkg4GzdEWV9zU4bFa-15" value="Data" style="rounded=0;whiteSpace=wrap;html=1;fontFamily=Courier New;fontStyle=1;fillColor=#e1d5e7;strokeColor=#9673a6;" parent="a1QZkg4GzdEWV9zU4bFa-14" vertex="1">
          <mxGeometry width="120" height="21.6" as="geometry" />
        </mxCell>
        <mxCell id="a1QZkg4GzdEWV9zU4bFa-16" value="rw-" style="text;html=1;strokeColor=none;fillColor=none;align=center;verticalAlign=middle;whiteSpace=wrap;rounded=0;fontFamily=Courier New;" parent="a1QZkg4GzdEWV9zU4bFa-14" vertex="1">
          <mxGeometry x="75" width="45" height="21.6" as="geometry" />
        </mxCell>
        <mxCell id="a1QZkg4GzdEWV9zU4bFa-17" value="" style="group;fontFamily=Courier New;" parent="a1QZkg4GzdEWV9zU4bFa-26" vertex="1" connectable="0">
          <mxGeometry y="221.4" width="120" height="21.6" as="geometry" />
        </mxCell>
        <mxCell id="a1QZkg4GzdEWV9zU4bFa-18" value="RO Data" style="rounded=0;whiteSpace=wrap;html=1;fontFamily=Courier New;fontStyle=1;fillColor=#f8cecc;strokeColor=#b85450;" parent="a1QZkg4GzdEWV9zU4bFa-17" vertex="1">
          <mxGeometry width="120" height="21.6" as="geometry" />
        </mxCell>
        <mxCell id="a1QZkg4GzdEWV9zU4bFa-19" value="r--" style="text;html=1;strokeColor=none;fillColor=none;align=center;verticalAlign=middle;whiteSpace=wrap;rounded=0;fontFamily=Courier New;" parent="a1QZkg4GzdEWV9zU4bFa-17" vertex="1">
          <mxGeometry x="75" width="45" height="21.6" as="geometry" />
        </mxCell>
        <mxCell id="a1QZkg4GzdEWV9zU4bFa-20" value="" style="group;fontFamily=Courier New;" parent="a1QZkg4GzdEWV9zU4bFa-26" vertex="1" connectable="0">
          <mxGeometry y="248.4" width="120" height="21.6" as="geometry" />
        </mxCell>
        <mxCell id="a1QZkg4GzdEWV9zU4bFa-21" value="Text" style="rounded=0;whiteSpace=wrap;html=1;fontFamily=Courier New;fontStyle=1;fillColor=#d5e8d4;strokeColor=#82b366;" parent="a1QZkg4GzdEWV9zU4bFa-20" vertex="1">
          <mxGeometry width="120" height="21.6" as="geometry" />
        </mxCell>
        <mxCell id="a1QZkg4GzdEWV9zU4bFa-22" value="r-x" style="text;html=1;strokeColor=none;fillColor=none;align=center;verticalAlign=middle;whiteSpace=wrap;rounded=0;fontFamily=Courier New;" parent="a1QZkg4GzdEWV9zU4bFa-20" vertex="1">
          <mxGeometry x="75" width="45" height="21.6" as="geometry" />
        </mxCell>
        <mxCell id="a1QZkg4GzdEWV9zU4bFa-23" value="" style="group;fontFamily=Courier New;" parent="a1QZkg4GzdEWV9zU4bFa-26" vertex="1" connectable="0">
          <mxGeometry width="120" height="21.6" as="geometry" />
        </mxCell>
        <mxCell id="a1QZkg4GzdEWV9zU4bFa-24" value="Stack" style="rounded=0;whiteSpace=wrap;html=1;fontFamily=Courier New;fontStyle=1;fillColor=#ffe6cc;strokeColor=#d79b00;" parent="a1QZkg4GzdEWV9zU4bFa-23" vertex="1">
          <mxGeometry width="120" height="21.6" as="geometry" />
        </mxCell>
        <mxCell id="a1QZkg4GzdEWV9zU4bFa-25" value="rw-/x" style="text;html=1;strokeColor=none;fillColor=none;align=center;verticalAlign=middle;whiteSpace=wrap;rounded=0;fontFamily=Courier New;" parent="a1QZkg4GzdEWV9zU4bFa-23" vertex="1">
          <mxGeometry x="75" width="45" height="21.6" as="geometry" />
        </mxCell>
        <mxCell id="a1QZkg4GzdEWV9zU4bFa-31" value="Matériel" style="text;html=1;align=center;verticalAlign=middle;whiteSpace=wrap;rounded=0;fontFamily=Courier New;fillColor=#f5f5f5;strokeColor=#666666;fontColor=#333333;" parent="1" vertex="1">
          <mxGeometry y="533" width="80" height="30" as="geometry" />
        </mxCell>
        <mxCell id="a1QZkg4GzdEWV9zU4bFa-32" value="" style="pointerEvents=1;shadow=0;dashed=0;html=1;strokeColor=#23445d;fillColor=#bac8d3;labelPosition=center;verticalLabelPosition=bottom;verticalAlign=top;align=center;outlineConnect=0;shape=mxgraph.veeam.ram;fontFamily=Courier New;" parent="1" vertex="1">
          <mxGeometry x="640" y="520.6" width="98.4" height="40" as="geometry" />
        </mxCell>
        <mxCell id="a1QZkg4GzdEWV9zU4bFa-34" style="edgeStyle=orthogonalEdgeStyle;rounded=0;orthogonalLoop=1;jettySize=auto;html=1;endArrow=none;endFill=0;fillColor=#bac8d3;strokeColor=#23445d;dashed=1;dashPattern=1 2;strokeWidth=2;fontFamily=Courier New;" parent="1" source="a1QZkg4GzdEWV9zU4bFa-33" target="YFzQ6mCsyl1PYcWT0SgN-50" edge="1">
          <mxGeometry relative="1" as="geometry" />
        </mxCell>
        <mxCell id="a1QZkg4GzdEWV9zU4bFa-33" value="" style="pointerEvents=1;shadow=0;dashed=0;html=1;strokeColor=#23445d;fillColor=#bac8d3;labelPosition=center;verticalLabelPosition=bottom;verticalAlign=top;align=center;outlineConnect=0;shape=mxgraph.veeam.ram;fontFamily=Courier New;" parent="1" vertex="1">
          <mxGeometry x="640" y="430" width="98.4" height="40" as="geometry" />
        </mxCell>
        <mxCell id="a1QZkg4GzdEWV9zU4bFa-35" style="edgeStyle=orthogonalEdgeStyle;rounded=0;orthogonalLoop=1;jettySize=auto;html=1;endArrow=none;endFill=0;fillColor=#bac8d3;strokeColor=#23445d;dashed=1;dashPattern=1 2;strokeWidth=2;fontFamily=Courier New;" parent="1" source="a1QZkg4GzdEWV9zU4bFa-32" target="a1QZkg4GzdEWV9zU4bFa-33" edge="1">
          <mxGeometry relative="1" as="geometry">
            <mxPoint x="699" y="440" as="sourcePoint" />
            <mxPoint x="699" y="270" as="targetPoint" />
          </mxGeometry>
        </mxCell>
        <mxCell id="nl31QbgP25wyRragnw6d-2" value="&lt;b&gt;&lt;font style=&quot;font-size: 13px;&quot;&gt;RAM&lt;/font&gt;&lt;/b&gt;" style="text;html=1;strokeColor=none;fillColor=none;align=center;verticalAlign=middle;whiteSpace=wrap;rounded=0;fontColor=#23445D;fontFamily=Courier New;" parent="1" vertex="1">
          <mxGeometry x="660" y="570" width="60" height="30" as="geometry" />
        </mxCell>
        <mxCell id="AsnkZSHlhIzTxTIV0TEX-2" style="orthogonalLoop=1;jettySize=auto;html=1;curved=1;endArrow=oval;endFill=0;strokeWidth=2;dashed=1;dashPattern=1 1;fillColor=#e1d5e7;strokeColor=#9673a6;fontFamily=Courier New;" parent="1" source="AsnkZSHlhIzTxTIV0TEX-1" edge="1">
          <mxGeometry relative="1" as="geometry">
            <mxPoint x="380" y="430" as="targetPoint" />
            <Array as="points">
              <mxPoint x="360" y="430" />
            </Array>
          </mxGeometry>
        </mxCell>
        <mxCell id="AsnkZSHlhIzTxTIV0TEX-4" value="&lt;font style=&quot;font-size: 10px;&quot;&gt;keyboard&lt;br&gt;interrupt&lt;/font&gt;" style="edgeLabel;html=1;align=center;verticalAlign=middle;resizable=0;points=[];fontFamily=Courier New;" parent="AsnkZSHlhIzTxTIV0TEX-2" vertex="1" connectable="0">
          <mxGeometry x="-0.092" y="-7" relative="1" as="geometry">
            <mxPoint x="-19" y="-63" as="offset" />
          </mxGeometry>
        </mxCell>
        <mxCell id="AsnkZSHlhIzTxTIV0TEX-1" value="keyboard" style="sketch=0;aspect=fixed;pointerEvents=1;shadow=0;dashed=0;html=1;strokeColor=#9673a6;labelPosition=center;verticalLabelPosition=bottom;verticalAlign=top;align=center;fillColor=#e1d5e7;shape=mxgraph.mscae.enterprise.keyboard;fontFamily=Courier New;" parent="1" vertex="1">
          <mxGeometry x="310" y="520.6" width="100" height="60" as="geometry" />
        </mxCell>
        <mxCell id="AsnkZSHlhIzTxTIV0TEX-3" value="" style="endArrow=none;html=1;rounded=0;strokeWidth=2;fillColor=#f8cecc;strokeColor=#b85450;fontFamily=Courier New;" parent="1" edge="1">
          <mxGeometry width="50" height="50" relative="1" as="geometry">
            <mxPoint x="423" y="310" as="sourcePoint" />
            <mxPoint x="503" y="310" as="targetPoint" />
          </mxGeometry>
        </mxCell>
        <mxCell id="ZpeSbpfGdf34-Vf6ryEZ-7" value="" style="group;fontFamily=Courier New;" parent="1" vertex="1" connectable="0">
          <mxGeometry x="750" y="520.6" width="90" height="68.4" as="geometry" />
        </mxCell>
        <mxCell id="a1QZkg4GzdEWV9zU4bFa-27" value="" style="rounded=0;whiteSpace=wrap;html=1;fontFamily=Courier New;fontStyle=1;fillColor=#f5f5f5;strokeColor=#666666;fontColor=#333333;" parent="ZpeSbpfGdf34-Vf6ryEZ-7" vertex="1">
          <mxGeometry y="28.39999999999999" width="90" height="10.000000000000004" as="geometry" />
        </mxCell>
        <mxCell id="ZpeSbpfGdf34-Vf6ryEZ-1" value="" style="rounded=0;whiteSpace=wrap;html=1;fontFamily=Courier New;fontStyle=1;fillColor=#f5f5f5;strokeColor=#666666;fontColor=#333333;" parent="ZpeSbpfGdf34-Vf6ryEZ-7" vertex="1">
          <mxGeometry y="38.39999999999999" width="90" height="10.000000000000004" as="geometry" />
        </mxCell>
        <mxCell id="ZpeSbpfGdf34-Vf6ryEZ-2" value="" style="rounded=0;whiteSpace=wrap;html=1;fontFamily=Courier New;fontStyle=1;fillColor=#f5f5f5;strokeColor=#666666;fontColor=#333333;" parent="ZpeSbpfGdf34-Vf6ryEZ-7" vertex="1">
          <mxGeometry y="48.4" width="90" height="10.000000000000004" as="geometry" />
        </mxCell>
        <mxCell id="ZpeSbpfGdf34-Vf6ryEZ-3" value="" style="rounded=0;whiteSpace=wrap;html=1;fontFamily=Courier New;fontStyle=1;fillColor=#f5f5f5;strokeColor=#666666;fontColor=#333333;" parent="ZpeSbpfGdf34-Vf6ryEZ-7" vertex="1">
          <mxGeometry y="18.399999999999984" width="90" height="10.000000000000004" as="geometry" />
        </mxCell>
        <mxCell id="ZpeSbpfGdf34-Vf6ryEZ-4" value="" style="rounded=0;whiteSpace=wrap;html=1;fontFamily=Courier New;fontStyle=1;fillColor=#f5f5f5;strokeColor=#666666;fontColor=#333333;" parent="ZpeSbpfGdf34-Vf6ryEZ-7" vertex="1">
          <mxGeometry y="8.39999999999998" width="90" height="10.000000000000004" as="geometry" />
        </mxCell>
        <mxCell id="ZpeSbpfGdf34-Vf6ryEZ-5" value="" style="rounded=0;whiteSpace=wrap;html=1;fontFamily=Courier New;fontStyle=1;fillColor=#f5f5f5;strokeColor=#666666;fontColor=#333333;" parent="ZpeSbpfGdf34-Vf6ryEZ-7" vertex="1">
          <mxGeometry y="58.400000000000006" width="90" height="10.000000000000004" as="geometry" />
        </mxCell>
        <mxCell id="ZpeSbpfGdf34-Vf6ryEZ-6" value="" style="rounded=0;whiteSpace=wrap;html=1;fontFamily=Courier New;fontStyle=1;fillColor=#f5f5f5;strokeColor=#666666;fontColor=#333333;" parent="ZpeSbpfGdf34-Vf6ryEZ-7" vertex="1">
          <mxGeometry width="90" height="10.000000000000004" as="geometry" />
        </mxCell>
        <mxCell id="ZpeSbpfGdf34-Vf6ryEZ-9" value="" style="endArrow=oval;html=1;fontFamily=Courier New;endFill=0;dashed=1;dashPattern=1 2;fillColor=#fff2cc;strokeColor=#d6b656;curved=1;strokeWidth=3;" parent="1" source="YFzQ6mCsyl1PYcWT0SgN-45" edge="1">
          <mxGeometry width="50" height="50" relative="1" as="geometry">
            <mxPoint x="222" y="528" as="sourcePoint" />
            <mxPoint x="500" y="430" as="targetPoint" />
            <Array as="points">
              <mxPoint x="220" y="450" />
              <mxPoint x="500" y="480" />
            </Array>
          </mxGeometry>
        </mxCell>
        <mxCell id="_0J5Gn8kRWLIlZy9uvZM-1" value="" style="endArrow=oval;html=1;fontFamily=Courier New;endFill=0;dashed=1;dashPattern=1 2;fillColor=#bac8d3;strokeColor=#23445d;curved=1;strokeWidth=3;" parent="1" edge="1">
          <mxGeometry width="50" height="50" relative="1" as="geometry">
            <mxPoint x="640" y="240" as="sourcePoint" />
            <mxPoint x="480" y="310" as="targetPoint" />
            <Array as="points">
              <mxPoint x="470" y="240" />
            </Array>
          </mxGeometry>
        </mxCell>
      </root>
    </mxGraphModel>
  </diagram>
  <diagram name="Syscalls" id="j_iUGJVlsxKqVP6AuauT">
    <mxGraphModel dx="1426" dy="862" grid="1" gridSize="10" guides="1" tooltips="1" connect="1" arrows="1" fold="1" page="1" pageScale="1" pageWidth="850" pageHeight="1100" math="0" shadow="0">
      <root>
        <mxCell id="pcbOPMTiGIg9wuEwtlKD-0" />
        <mxCell id="pcbOPMTiGIg9wuEwtlKD-1" parent="pcbOPMTiGIg9wuEwtlKD-0" />
        <mxCell id="pcbOPMTiGIg9wuEwtlKD-2" value="" style="endArrow=none;html=1;rounded=0;strokeWidth=3;endFill=0;dashed=1;fontFamily=Courier New;" parent="pcbOPMTiGIg9wuEwtlKD-1" edge="1">
          <mxGeometry width="50" height="50" relative="1" as="geometry">
            <mxPoint x="80" y="390" as="sourcePoint" />
            <mxPoint x="670" y="390" as="targetPoint" />
          </mxGeometry>
        </mxCell>
        <mxCell id="pcbOPMTiGIg9wuEwtlKD-3" value="Processus 1" style="text;html=1;strokeColor=#d79b00;fillColor=#ffe6cc;align=center;verticalAlign=middle;whiteSpace=wrap;rounded=0;fontFamily=Courier New;" parent="pcbOPMTiGIg9wuEwtlKD-1" vertex="1">
          <mxGeometry y="330" width="80" height="30" as="geometry" />
        </mxCell>
        <mxCell id="pcbOPMTiGIg9wuEwtlKD-4" value="Processus 2" style="text;html=1;strokeColor=#b85450;fillColor=#f8cecc;align=center;verticalAlign=middle;whiteSpace=wrap;rounded=0;fontFamily=Courier New;" parent="pcbOPMTiGIg9wuEwtlKD-1" vertex="1">
          <mxGeometry y="290" width="80" height="30" as="geometry" />
        </mxCell>
        <mxCell id="pcbOPMTiGIg9wuEwtlKD-5" value="" style="endArrow=none;html=1;rounded=0;strokeWidth=2;fillColor=#d5e8d4;strokeColor=#82b366;fontFamily=Courier New;" parent="pcbOPMTiGIg9wuEwtlKD-1" edge="1">
          <mxGeometry width="50" height="50" relative="1" as="geometry">
            <mxPoint x="80" y="470" as="sourcePoint" />
            <mxPoint x="120" y="470" as="targetPoint" />
          </mxGeometry>
        </mxCell>
        <mxCell id="pcbOPMTiGIg9wuEwtlKD-6" value="" style="endArrow=none;html=1;rounded=0;strokeWidth=2;fillColor=#dae8fc;strokeColor=#6c8ebf;fontFamily=Courier New;" parent="pcbOPMTiGIg9wuEwtlKD-1" edge="1">
          <mxGeometry width="50" height="50" relative="1" as="geometry">
            <mxPoint x="120" y="430" as="sourcePoint" />
            <mxPoint x="200" y="430" as="targetPoint" />
          </mxGeometry>
        </mxCell>
        <mxCell id="pcbOPMTiGIg9wuEwtlKD-7" value="BIOS" style="text;html=1;align=center;verticalAlign=middle;whiteSpace=wrap;rounded=0;fontFamily=Courier New;fillColor=#d5e8d4;strokeColor=#82b366;" parent="pcbOPMTiGIg9wuEwtlKD-1" vertex="1">
          <mxGeometry y="450" width="80" height="30" as="geometry" />
        </mxCell>
        <mxCell id="pcbOPMTiGIg9wuEwtlKD-8" value="Kernel" style="text;html=1;strokeColor=#6c8ebf;fillColor=#dae8fc;align=center;verticalAlign=middle;whiteSpace=wrap;rounded=0;fontFamily=Courier New;" parent="pcbOPMTiGIg9wuEwtlKD-1" vertex="1">
          <mxGeometry y="410" width="80" height="30" as="geometry" />
        </mxCell>
        <mxCell id="pcbOPMTiGIg9wuEwtlKD-9" value="" style="endArrow=open;html=1;rounded=0;dashed=1;endFill=0;strokeWidth=2;fillColor=#f5f5f5;strokeColor=#666666;fontFamily=Courier New;" parent="pcbOPMTiGIg9wuEwtlKD-1" edge="1">
          <mxGeometry width="50" height="50" relative="1" as="geometry">
            <mxPoint x="120" y="470" as="sourcePoint" />
            <mxPoint x="120" y="430" as="targetPoint" />
          </mxGeometry>
        </mxCell>
        <mxCell id="pcbOPMTiGIg9wuEwtlKD-10" value="jump" style="edgeLabel;html=1;align=center;verticalAlign=middle;resizable=0;points=[];fontFamily=Courier New;" parent="pcbOPMTiGIg9wuEwtlKD-9" vertex="1" connectable="0">
          <mxGeometry x="-0.3241" relative="1" as="geometry">
            <mxPoint x="20" as="offset" />
          </mxGeometry>
        </mxCell>
        <mxCell id="pcbOPMTiGIg9wuEwtlKD-11" value="Kernel space" style="text;html=1;strokeColor=none;fillColor=none;align=center;verticalAlign=middle;whiteSpace=wrap;rounded=0;fontStyle=1;fontFamily=Courier New;" parent="pcbOPMTiGIg9wuEwtlKD-1" vertex="1">
          <mxGeometry x="560" y="400" width="100" height="40" as="geometry" />
        </mxCell>
        <mxCell id="pcbOPMTiGIg9wuEwtlKD-12" value="User space" style="text;html=1;strokeColor=none;fillColor=none;align=center;verticalAlign=middle;whiteSpace=wrap;rounded=0;fontStyle=1;fontFamily=Courier New;" parent="pcbOPMTiGIg9wuEwtlKD-1" vertex="1">
          <mxGeometry x="560" y="340" width="100" height="40" as="geometry" />
        </mxCell>
        <mxCell id="pcbOPMTiGIg9wuEwtlKD-13" value="" style="endArrow=none;html=1;rounded=0;strokeWidth=2;fillColor=#ffe6cc;strokeColor=#d79b00;fontFamily=Courier New;" parent="pcbOPMTiGIg9wuEwtlKD-1" edge="1">
          <mxGeometry width="50" height="50" relative="1" as="geometry">
            <mxPoint x="200" y="350" as="sourcePoint" />
            <mxPoint x="280" y="350" as="targetPoint" />
          </mxGeometry>
        </mxCell>
        <mxCell id="pcbOPMTiGIg9wuEwtlKD-14" value="" style="endArrow=open;html=1;rounded=0;dashed=1;endFill=0;strokeWidth=2;fillColor=#f5f5f5;strokeColor=#666666;fontFamily=Courier New;" parent="pcbOPMTiGIg9wuEwtlKD-1" edge="1">
          <mxGeometry width="50" height="50" relative="1" as="geometry">
            <mxPoint x="200" y="430" as="sourcePoint" />
            <mxPoint x="200" y="350" as="targetPoint" />
          </mxGeometry>
        </mxCell>
        <mxCell id="pcbOPMTiGIg9wuEwtlKD-15" value="jump" style="edgeLabel;html=1;align=center;verticalAlign=middle;resizable=0;points=[];fontFamily=Courier New;" parent="pcbOPMTiGIg9wuEwtlKD-14" vertex="1" connectable="0">
          <mxGeometry x="-0.3241" relative="1" as="geometry">
            <mxPoint x="20" as="offset" />
          </mxGeometry>
        </mxCell>
        <mxCell id="pcbOPMTiGIg9wuEwtlKD-16" value="" style="endArrow=none;html=1;rounded=0;strokeWidth=2;fillColor=#f8cecc;strokeColor=#b85450;fontFamily=Courier New;" parent="pcbOPMTiGIg9wuEwtlKD-1" edge="1">
          <mxGeometry width="50" height="50" relative="1" as="geometry">
            <mxPoint x="320" y="310" as="sourcePoint" />
            <mxPoint x="380" y="310" as="targetPoint" />
          </mxGeometry>
        </mxCell>
        <mxCell id="pcbOPMTiGIg9wuEwtlKD-17" value="" style="endArrow=open;html=1;rounded=0;dashed=1;endFill=0;strokeWidth=2;fillColor=#f5f5f5;strokeColor=#666666;fontFamily=Courier New;" parent="pcbOPMTiGIg9wuEwtlKD-1" edge="1">
          <mxGeometry width="50" height="50" relative="1" as="geometry">
            <mxPoint x="280" y="350" as="sourcePoint" />
            <mxPoint x="280" y="430" as="targetPoint" />
          </mxGeometry>
        </mxCell>
        <mxCell id="pcbOPMTiGIg9wuEwtlKD-18" value="" style="endArrow=none;html=1;rounded=0;strokeWidth=2;fillColor=#dae8fc;strokeColor=#6c8ebf;fontFamily=Courier New;" parent="pcbOPMTiGIg9wuEwtlKD-1" edge="1">
          <mxGeometry width="50" height="50" relative="1" as="geometry">
            <mxPoint x="280" y="430" as="sourcePoint" />
            <mxPoint x="320" y="430" as="targetPoint" />
          </mxGeometry>
        </mxCell>
        <mxCell id="pcbOPMTiGIg9wuEwtlKD-19" value="" style="endArrow=open;html=1;rounded=0;dashed=1;endFill=0;strokeWidth=2;fillColor=#f5f5f5;strokeColor=#666666;fontFamily=Courier New;" parent="pcbOPMTiGIg9wuEwtlKD-1" edge="1">
          <mxGeometry width="50" height="50" relative="1" as="geometry">
            <mxPoint x="320" y="430" as="sourcePoint" />
            <mxPoint x="320" y="310" as="targetPoint" />
          </mxGeometry>
        </mxCell>
        <mxCell id="pcbOPMTiGIg9wuEwtlKD-20" value="" style="endArrow=none;html=1;rounded=0;strokeWidth=2;fillColor=#dae8fc;strokeColor=#6c8ebf;fontFamily=Courier New;" parent="pcbOPMTiGIg9wuEwtlKD-1" edge="1">
          <mxGeometry width="50" height="50" relative="1" as="geometry">
            <mxPoint x="380" y="430" as="sourcePoint" />
            <mxPoint x="425" y="430" as="targetPoint" />
          </mxGeometry>
        </mxCell>
        <mxCell id="pcbOPMTiGIg9wuEwtlKD-21" value="" style="endArrow=open;html=1;rounded=0;dashed=1;endFill=0;strokeWidth=2;fillColor=#f5f5f5;strokeColor=#666666;fontFamily=Courier New;" parent="pcbOPMTiGIg9wuEwtlKD-1" edge="1">
          <mxGeometry width="50" height="50" relative="1" as="geometry">
            <mxPoint x="380" y="310" as="sourcePoint" />
            <mxPoint x="380" y="430" as="targetPoint" />
          </mxGeometry>
        </mxCell>
        <mxCell id="pcbOPMTiGIg9wuEwtlKD-22" value="" style="endArrow=open;html=1;rounded=0;dashed=1;endFill=0;strokeWidth=2;fillColor=#f5f5f5;strokeColor=#666666;fontFamily=Courier New;" parent="pcbOPMTiGIg9wuEwtlKD-1" edge="1">
          <mxGeometry width="50" height="50" relative="1" as="geometry">
            <mxPoint x="424" y="430" as="sourcePoint" />
            <mxPoint x="424" y="310" as="targetPoint" />
            <Array as="points">
              <mxPoint x="424" y="370" />
            </Array>
          </mxGeometry>
        </mxCell>
        <mxCell id="pcbOPMTiGIg9wuEwtlKD-23" value="" style="endArrow=none;html=1;rounded=0;strokeWidth=2;fillColor=#dae8fc;strokeColor=#6c8ebf;fontFamily=Courier New;" parent="pcbOPMTiGIg9wuEwtlKD-1" edge="1">
          <mxGeometry width="50" height="50" relative="1" as="geometry">
            <mxPoint x="502" y="430" as="sourcePoint" />
            <mxPoint x="542" y="430" as="targetPoint" />
          </mxGeometry>
        </mxCell>
        <mxCell id="pcbOPMTiGIg9wuEwtlKD-24" value="" style="endArrow=open;html=1;rounded=0;dashed=1;endFill=0;strokeWidth=2;fillColor=#f5f5f5;strokeColor=#666666;fontFamily=Courier New;" parent="pcbOPMTiGIg9wuEwtlKD-1" edge="1">
          <mxGeometry width="50" height="50" relative="1" as="geometry">
            <mxPoint x="503" y="310" as="sourcePoint" />
            <mxPoint x="503" y="430" as="targetPoint" />
          </mxGeometry>
        </mxCell>
        <mxCell id="pcbOPMTiGIg9wuEwtlKD-25" value="" style="endArrow=open;html=1;rounded=0;endFill=0;strokeWidth=2;fontFamily=Courier New;" parent="pcbOPMTiGIg9wuEwtlKD-1" edge="1">
          <mxGeometry width="50" height="50" relative="1" as="geometry">
            <mxPoint x="80" y="480" as="sourcePoint" />
            <mxPoint x="750" y="480" as="targetPoint" />
          </mxGeometry>
        </mxCell>
        <mxCell id="pcbOPMTiGIg9wuEwtlKD-26" value="Temps" style="edgeLabel;html=1;align=center;verticalAlign=middle;resizable=0;points=[];fontFamily=Courier New;fontSize=16;" parent="pcbOPMTiGIg9wuEwtlKD-25" vertex="1" connectable="0">
          <mxGeometry x="0.5958" relative="1" as="geometry">
            <mxPoint x="-74" y="20" as="offset" />
          </mxGeometry>
        </mxCell>
        <mxCell id="pcbOPMTiGIg9wuEwtlKD-27" value="&lt;font&gt;Temporisateur&lt;/font&gt;" style="pointerEvents=1;shadow=0;dashed=0;html=1;strokeColor=#d79b00;fillColor=#ffe6cc;labelPosition=center;verticalLabelPosition=bottom;verticalAlign=top;align=center;outlineConnect=0;shape=mxgraph.veeam.cpu;fontFamily=Courier New;" parent="pcbOPMTiGIg9wuEwtlKD-1" vertex="1">
          <mxGeometry x="190" y="518.2" width="44.8" height="44.8" as="geometry" />
        </mxCell>
        <mxCell id="pcbOPMTiGIg9wuEwtlKD-28" value="" style="endArrow=open;html=1;rounded=0;endFill=0;strokeWidth=2;fontFamily=Courier New;" parent="pcbOPMTiGIg9wuEwtlKD-1" edge="1">
          <mxGeometry width="50" height="50" relative="1" as="geometry">
            <mxPoint x="80" y="480" as="sourcePoint" />
            <mxPoint x="80" y="80" as="targetPoint" />
          </mxGeometry>
        </mxCell>
        <mxCell id="pcbOPMTiGIg9wuEwtlKD-30" value="" style="endArrow=oval;html=1;fontFamily=Courier New;endFill=0;dashed=1;dashPattern=1 2;fillColor=#fff2cc;strokeColor=#d6b656;curved=1;strokeWidth=3;" parent="pcbOPMTiGIg9wuEwtlKD-1" source="pcbOPMTiGIg9wuEwtlKD-27" edge="1">
          <mxGeometry width="50" height="50" relative="1" as="geometry">
            <mxPoint x="690" y="277" as="sourcePoint" />
            <mxPoint x="280" y="430" as="targetPoint" />
            <Array as="points">
              <mxPoint x="210" y="440" />
            </Array>
          </mxGeometry>
        </mxCell>
        <mxCell id="pcbOPMTiGIg9wuEwtlKD-55" value="Matériel" style="text;html=1;align=center;verticalAlign=middle;whiteSpace=wrap;rounded=0;fontFamily=Courier New;fillColor=#f5f5f5;strokeColor=#666666;fontColor=#333333;" parent="pcbOPMTiGIg9wuEwtlKD-1" vertex="1">
          <mxGeometry y="533" width="80" height="30" as="geometry" />
        </mxCell>
        <mxCell id="pcbOPMTiGIg9wuEwtlKD-64" value="" style="endArrow=none;html=1;rounded=0;strokeWidth=2;fillColor=#f8cecc;strokeColor=#b85450;fontFamily=Courier New;" parent="pcbOPMTiGIg9wuEwtlKD-1" edge="1">
          <mxGeometry width="50" height="50" relative="1" as="geometry">
            <mxPoint x="423" y="310" as="sourcePoint" />
            <mxPoint x="503" y="310" as="targetPoint" />
          </mxGeometry>
        </mxCell>
        <mxCell id="u-bew_AHO0AwebayynB7-0" value="&lt;font&gt;&lt;span style=&quot;font-size: 10px;&quot;&gt;syscall&lt;br&gt;chmod&lt;/span&gt;&lt;/font&gt;" style="edgeLabel;html=1;align=center;verticalAlign=middle;resizable=0;points=[];fontFamily=Courier New;" parent="pcbOPMTiGIg9wuEwtlKD-1" vertex="1" connectable="0">
          <mxGeometry x="370" y="420.0042857142857" as="geometry">
            <mxPoint x="-16" y="-6" as="offset" />
          </mxGeometry>
        </mxCell>
        <mxCell id="u-bew_AHO0AwebayynB7-1" value="&lt;font&gt;&lt;span style=&quot;font-size: 10px;&quot;&gt;syscall&lt;br&gt;mkdir&lt;/span&gt;&lt;/font&gt;" style="edgeLabel;html=1;align=center;verticalAlign=middle;resizable=0;points=[];fontFamily=Courier New;" parent="pcbOPMTiGIg9wuEwtlKD-1" vertex="1" connectable="0">
          <mxGeometry x="480" y="420.0042857142857" as="geometry">
            <mxPoint x="-16" y="-6" as="offset" />
          </mxGeometry>
        </mxCell>
        <mxCell id="u-bew_AHO0AwebayynB7-2" value="" style="endArrow=open;html=1;rounded=0;dashed=1;endFill=0;strokeWidth=2;fillColor=#f5f5f5;strokeColor=#666666;fontFamily=Courier New;" parent="pcbOPMTiGIg9wuEwtlKD-1" edge="1">
          <mxGeometry width="50" height="50" relative="1" as="geometry">
            <mxPoint x="540" y="430" as="sourcePoint" />
            <mxPoint x="540" y="310" as="targetPoint" />
            <Array as="points">
              <mxPoint x="540" y="370" />
            </Array>
          </mxGeometry>
        </mxCell>
        <mxCell id="u-bew_AHO0AwebayynB7-3" value="" style="endArrow=none;html=1;rounded=0;strokeWidth=2;fillColor=#f8cecc;strokeColor=#b85450;fontFamily=Courier New;dashed=1;" parent="pcbOPMTiGIg9wuEwtlKD-1" edge="1">
          <mxGeometry width="50" height="50" relative="1" as="geometry">
            <mxPoint x="540" y="310" as="sourcePoint" />
            <mxPoint x="640" y="310" as="targetPoint" />
          </mxGeometry>
        </mxCell>
        <mxCell id="u-bew_AHO0AwebayynB7-4" value="" style="endArrow=none;html=1;rounded=0;strokeWidth=2;fillColor=#f8cecc;strokeColor=#b85450;fontFamily=Courier New;" parent="pcbOPMTiGIg9wuEwtlKD-1" edge="1">
          <mxGeometry width="50" height="50" relative="1" as="geometry">
            <mxPoint x="540" y="310" as="sourcePoint" />
            <mxPoint x="590" y="310" as="targetPoint" />
          </mxGeometry>
        </mxCell>
      </root>
    </mxGraphModel>
  </diagram>
  <diagram name="Scheduler" id="JPAfUrciu0K2aCSr1eqy">
    <mxGraphModel dx="1426" dy="862" grid="1" gridSize="10" guides="1" tooltips="1" connect="1" arrows="1" fold="1" page="1" pageScale="1" pageWidth="850" pageHeight="1100" math="0" shadow="0">
      <root>
        <mxCell id="sffZRApCDinfk2uAwmhn-0" />
        <mxCell id="sffZRApCDinfk2uAwmhn-1" parent="sffZRApCDinfk2uAwmhn-0" />
        <mxCell id="sffZRApCDinfk2uAwmhn-2" value="" style="endArrow=none;html=1;rounded=0;strokeWidth=3;endFill=0;dashed=1;fontFamily=Courier New;" parent="sffZRApCDinfk2uAwmhn-1" edge="1">
          <mxGeometry width="50" height="50" relative="1" as="geometry">
            <mxPoint x="80" y="390" as="sourcePoint" />
            <mxPoint x="670" y="390" as="targetPoint" />
          </mxGeometry>
        </mxCell>
        <mxCell id="sffZRApCDinfk2uAwmhn-3" value="Processus 1" style="text;html=1;strokeColor=#d79b00;fillColor=#ffe6cc;align=center;verticalAlign=middle;whiteSpace=wrap;rounded=0;fontFamily=Courier New;" parent="sffZRApCDinfk2uAwmhn-1" vertex="1">
          <mxGeometry y="330" width="80" height="30" as="geometry" />
        </mxCell>
        <mxCell id="sffZRApCDinfk2uAwmhn-5" value="" style="endArrow=none;html=1;rounded=0;strokeWidth=2;fillColor=#d5e8d4;strokeColor=#82b366;fontFamily=Courier New;" parent="sffZRApCDinfk2uAwmhn-1" edge="1">
          <mxGeometry width="50" height="50" relative="1" as="geometry">
            <mxPoint x="80" y="470" as="sourcePoint" />
            <mxPoint x="120" y="470" as="targetPoint" />
          </mxGeometry>
        </mxCell>
        <mxCell id="sffZRApCDinfk2uAwmhn-6" value="" style="endArrow=none;html=1;rounded=0;strokeWidth=2;fillColor=#dae8fc;strokeColor=#6c8ebf;fontFamily=Courier New;" parent="sffZRApCDinfk2uAwmhn-1" edge="1">
          <mxGeometry width="50" height="50" relative="1" as="geometry">
            <mxPoint x="120" y="430" as="sourcePoint" />
            <mxPoint x="200" y="430" as="targetPoint" />
          </mxGeometry>
        </mxCell>
        <mxCell id="sffZRApCDinfk2uAwmhn-7" value="BIOS" style="text;html=1;align=center;verticalAlign=middle;whiteSpace=wrap;rounded=0;fontFamily=Courier New;fillColor=#d5e8d4;strokeColor=#82b366;" parent="sffZRApCDinfk2uAwmhn-1" vertex="1">
          <mxGeometry y="450" width="80" height="30" as="geometry" />
        </mxCell>
        <mxCell id="sffZRApCDinfk2uAwmhn-8" value="Kernel" style="text;html=1;strokeColor=#6c8ebf;fillColor=#dae8fc;align=center;verticalAlign=middle;whiteSpace=wrap;rounded=0;fontFamily=Courier New;" parent="sffZRApCDinfk2uAwmhn-1" vertex="1">
          <mxGeometry y="410" width="80" height="30" as="geometry" />
        </mxCell>
        <mxCell id="sffZRApCDinfk2uAwmhn-9" value="" style="endArrow=open;html=1;rounded=0;dashed=1;endFill=0;strokeWidth=2;fillColor=#f5f5f5;strokeColor=#666666;fontFamily=Courier New;" parent="sffZRApCDinfk2uAwmhn-1" edge="1">
          <mxGeometry width="50" height="50" relative="1" as="geometry">
            <mxPoint x="120" y="470" as="sourcePoint" />
            <mxPoint x="120" y="430" as="targetPoint" />
          </mxGeometry>
        </mxCell>
        <mxCell id="sffZRApCDinfk2uAwmhn-10" value="jump" style="edgeLabel;html=1;align=center;verticalAlign=middle;resizable=0;points=[];fontFamily=Courier New;" parent="sffZRApCDinfk2uAwmhn-9" vertex="1" connectable="0">
          <mxGeometry x="-0.3241" relative="1" as="geometry">
            <mxPoint x="20" as="offset" />
          </mxGeometry>
        </mxCell>
        <mxCell id="sffZRApCDinfk2uAwmhn-11" value="Kernel space" style="text;html=1;strokeColor=none;fillColor=none;align=center;verticalAlign=middle;whiteSpace=wrap;rounded=0;fontStyle=1;fontFamily=Courier New;" parent="sffZRApCDinfk2uAwmhn-1" vertex="1">
          <mxGeometry x="560" y="400" width="100" height="40" as="geometry" />
        </mxCell>
        <mxCell id="sffZRApCDinfk2uAwmhn-12" value="User space" style="text;html=1;strokeColor=none;fillColor=none;align=center;verticalAlign=middle;whiteSpace=wrap;rounded=0;fontStyle=1;fontFamily=Courier New;" parent="sffZRApCDinfk2uAwmhn-1" vertex="1">
          <mxGeometry x="560" y="340" width="100" height="40" as="geometry" />
        </mxCell>
        <mxCell id="sffZRApCDinfk2uAwmhn-13" value="" style="endArrow=none;html=1;rounded=0;strokeWidth=2;fillColor=#ffe6cc;strokeColor=#d79b00;fontFamily=Courier New;" parent="sffZRApCDinfk2uAwmhn-1" edge="1">
          <mxGeometry width="50" height="50" relative="1" as="geometry">
            <mxPoint x="200" y="350" as="sourcePoint" />
            <mxPoint x="550" y="350" as="targetPoint" />
          </mxGeometry>
        </mxCell>
        <mxCell id="sffZRApCDinfk2uAwmhn-14" value="" style="endArrow=open;html=1;rounded=0;dashed=1;endFill=0;strokeWidth=2;fillColor=#f5f5f5;strokeColor=#666666;fontFamily=Courier New;" parent="sffZRApCDinfk2uAwmhn-1" edge="1">
          <mxGeometry width="50" height="50" relative="1" as="geometry">
            <mxPoint x="200" y="430" as="sourcePoint" />
            <mxPoint x="200" y="350" as="targetPoint" />
          </mxGeometry>
        </mxCell>
        <mxCell id="sffZRApCDinfk2uAwmhn-15" value="jump" style="edgeLabel;html=1;align=center;verticalAlign=middle;resizable=0;points=[];fontFamily=Courier New;" parent="sffZRApCDinfk2uAwmhn-14" vertex="1" connectable="0">
          <mxGeometry x="-0.3241" relative="1" as="geometry">
            <mxPoint x="20" as="offset" />
          </mxGeometry>
        </mxCell>
        <mxCell id="sffZRApCDinfk2uAwmhn-25" value="" style="endArrow=open;html=1;rounded=0;endFill=0;strokeWidth=2;fontFamily=Courier New;" parent="sffZRApCDinfk2uAwmhn-1" edge="1">
          <mxGeometry width="50" height="50" relative="1" as="geometry">
            <mxPoint x="80" y="480" as="sourcePoint" />
            <mxPoint x="750" y="480" as="targetPoint" />
          </mxGeometry>
        </mxCell>
        <mxCell id="sffZRApCDinfk2uAwmhn-26" value="Temps" style="edgeLabel;html=1;align=center;verticalAlign=middle;resizable=0;points=[];fontFamily=Courier New;fontSize=16;" parent="sffZRApCDinfk2uAwmhn-25" vertex="1" connectable="0">
          <mxGeometry x="0.5958" relative="1" as="geometry">
            <mxPoint x="-74" y="20" as="offset" />
          </mxGeometry>
        </mxCell>
        <mxCell id="sffZRApCDinfk2uAwmhn-55" value="Matériel" style="text;html=1;align=center;verticalAlign=middle;whiteSpace=wrap;rounded=0;fontFamily=Courier New;fillColor=#f5f5f5;strokeColor=#666666;fontColor=#333333;" parent="sffZRApCDinfk2uAwmhn-1" vertex="1">
          <mxGeometry y="533" width="80" height="30" as="geometry" />
        </mxCell>
        <mxCell id="k4N4MiqckSTjEnocT__i-0" value="Processus 2" style="text;html=1;strokeColor=#b85450;fillColor=#f8cecc;align=center;verticalAlign=middle;whiteSpace=wrap;rounded=0;fontFamily=Courier New;" parent="sffZRApCDinfk2uAwmhn-1" vertex="1">
          <mxGeometry y="280" width="80" height="30" as="geometry" />
        </mxCell>
        <mxCell id="k4N4MiqckSTjEnocT__i-1" value="" style="endArrow=open;html=1;rounded=0;endFill=0;strokeWidth=2;fontFamily=Courier New;" parent="sffZRApCDinfk2uAwmhn-1" edge="1">
          <mxGeometry width="50" height="50" relative="1" as="geometry">
            <mxPoint x="80" y="480" as="sourcePoint" />
            <mxPoint x="80" y="80" as="targetPoint" />
          </mxGeometry>
        </mxCell>
      </root>
    </mxGraphModel>
  </diagram>
  <diagram name="Scheduler 2" id="JCQyA4Uv1Vhg1SEql3dr">
    <mxGraphModel dx="1426" dy="862" grid="1" gridSize="10" guides="1" tooltips="1" connect="1" arrows="1" fold="1" page="1" pageScale="1" pageWidth="850" pageHeight="1100" math="0" shadow="0">
      <root>
        <mxCell id="P4oBK0C0H0kXvUHc0HSH-0" />
        <mxCell id="P4oBK0C0H0kXvUHc0HSH-1" parent="P4oBK0C0H0kXvUHc0HSH-0" />
        <mxCell id="P4oBK0C0H0kXvUHc0HSH-2" value="" style="endArrow=none;html=1;rounded=0;strokeWidth=3;endFill=0;dashed=1;fontFamily=Courier New;" parent="P4oBK0C0H0kXvUHc0HSH-1" edge="1">
          <mxGeometry width="50" height="50" relative="1" as="geometry">
            <mxPoint x="80" y="390" as="sourcePoint" />
            <mxPoint x="670" y="390" as="targetPoint" />
          </mxGeometry>
        </mxCell>
        <mxCell id="P4oBK0C0H0kXvUHc0HSH-3" value="Processus 1" style="text;html=1;strokeColor=#d79b00;fillColor=#ffe6cc;align=center;verticalAlign=middle;whiteSpace=wrap;rounded=0;fontFamily=Courier New;" parent="P4oBK0C0H0kXvUHc0HSH-1" vertex="1">
          <mxGeometry y="330" width="80" height="30" as="geometry" />
        </mxCell>
        <mxCell id="P4oBK0C0H0kXvUHc0HSH-4" value="" style="endArrow=none;html=1;rounded=0;strokeWidth=2;fillColor=#d5e8d4;strokeColor=#82b366;fontFamily=Courier New;" parent="P4oBK0C0H0kXvUHc0HSH-1" edge="1">
          <mxGeometry width="50" height="50" relative="1" as="geometry">
            <mxPoint x="80" y="470" as="sourcePoint" />
            <mxPoint x="120" y="470" as="targetPoint" />
          </mxGeometry>
        </mxCell>
        <mxCell id="P4oBK0C0H0kXvUHc0HSH-5" value="" style="endArrow=none;html=1;rounded=0;strokeWidth=2;fillColor=#dae8fc;strokeColor=#6c8ebf;fontFamily=Courier New;" parent="P4oBK0C0H0kXvUHc0HSH-1" edge="1">
          <mxGeometry width="50" height="50" relative="1" as="geometry">
            <mxPoint x="120" y="430" as="sourcePoint" />
            <mxPoint x="200" y="430" as="targetPoint" />
          </mxGeometry>
        </mxCell>
        <mxCell id="P4oBK0C0H0kXvUHc0HSH-6" value="BIOS" style="text;html=1;align=center;verticalAlign=middle;whiteSpace=wrap;rounded=0;fontFamily=Courier New;fillColor=#d5e8d4;strokeColor=#82b366;" parent="P4oBK0C0H0kXvUHc0HSH-1" vertex="1">
          <mxGeometry y="450" width="80" height="30" as="geometry" />
        </mxCell>
        <mxCell id="P4oBK0C0H0kXvUHc0HSH-7" value="Kernel" style="text;html=1;strokeColor=#6c8ebf;fillColor=#dae8fc;align=center;verticalAlign=middle;whiteSpace=wrap;rounded=0;fontFamily=Courier New;" parent="P4oBK0C0H0kXvUHc0HSH-1" vertex="1">
          <mxGeometry y="410" width="80" height="30" as="geometry" />
        </mxCell>
        <mxCell id="P4oBK0C0H0kXvUHc0HSH-8" value="" style="endArrow=open;html=1;rounded=0;dashed=1;endFill=0;strokeWidth=2;fillColor=#f5f5f5;strokeColor=#666666;fontFamily=Courier New;" parent="P4oBK0C0H0kXvUHc0HSH-1" edge="1">
          <mxGeometry width="50" height="50" relative="1" as="geometry">
            <mxPoint x="120" y="470" as="sourcePoint" />
            <mxPoint x="120" y="430" as="targetPoint" />
          </mxGeometry>
        </mxCell>
        <mxCell id="P4oBK0C0H0kXvUHc0HSH-9" value="jump" style="edgeLabel;html=1;align=center;verticalAlign=middle;resizable=0;points=[];fontFamily=Courier New;" parent="P4oBK0C0H0kXvUHc0HSH-8" vertex="1" connectable="0">
          <mxGeometry x="-0.3241" relative="1" as="geometry">
            <mxPoint x="20" as="offset" />
          </mxGeometry>
        </mxCell>
        <mxCell id="P4oBK0C0H0kXvUHc0HSH-10" value="Kernel space" style="text;html=1;strokeColor=none;fillColor=none;align=center;verticalAlign=middle;whiteSpace=wrap;rounded=0;fontStyle=1;fontFamily=Courier New;" parent="P4oBK0C0H0kXvUHc0HSH-1" vertex="1">
          <mxGeometry x="560" y="400" width="100" height="40" as="geometry" />
        </mxCell>
        <mxCell id="P4oBK0C0H0kXvUHc0HSH-11" value="User space" style="text;html=1;strokeColor=none;fillColor=none;align=center;verticalAlign=middle;whiteSpace=wrap;rounded=0;fontStyle=1;fontFamily=Courier New;" parent="P4oBK0C0H0kXvUHc0HSH-1" vertex="1">
          <mxGeometry x="560" y="340" width="100" height="40" as="geometry" />
        </mxCell>
        <mxCell id="P4oBK0C0H0kXvUHc0HSH-12" value="" style="endArrow=none;html=1;rounded=0;strokeWidth=2;fillColor=#ffe6cc;strokeColor=#d79b00;fontFamily=Courier New;" parent="P4oBK0C0H0kXvUHc0HSH-1" edge="1">
          <mxGeometry width="50" height="50" relative="1" as="geometry">
            <mxPoint x="200" y="350" as="sourcePoint" />
            <mxPoint x="280" y="350" as="targetPoint" />
          </mxGeometry>
        </mxCell>
        <mxCell id="P4oBK0C0H0kXvUHc0HSH-13" value="" style="endArrow=open;html=1;rounded=0;dashed=1;endFill=0;strokeWidth=2;fillColor=#f5f5f5;strokeColor=#666666;fontFamily=Courier New;" parent="P4oBK0C0H0kXvUHc0HSH-1" edge="1">
          <mxGeometry width="50" height="50" relative="1" as="geometry">
            <mxPoint x="200" y="430" as="sourcePoint" />
            <mxPoint x="200" y="350" as="targetPoint" />
          </mxGeometry>
        </mxCell>
        <mxCell id="P4oBK0C0H0kXvUHc0HSH-14" value="jump" style="edgeLabel;html=1;align=center;verticalAlign=middle;resizable=0;points=[];fontFamily=Courier New;" parent="P4oBK0C0H0kXvUHc0HSH-13" vertex="1" connectable="0">
          <mxGeometry x="-0.3241" relative="1" as="geometry">
            <mxPoint x="20" as="offset" />
          </mxGeometry>
        </mxCell>
        <mxCell id="P4oBK0C0H0kXvUHc0HSH-15" value="" style="endArrow=open;html=1;rounded=0;dashed=1;endFill=0;strokeWidth=2;fillColor=#f5f5f5;strokeColor=#666666;fontFamily=Courier New;" parent="P4oBK0C0H0kXvUHc0HSH-1" edge="1">
          <mxGeometry width="50" height="50" relative="1" as="geometry">
            <mxPoint x="280" y="350" as="sourcePoint" />
            <mxPoint x="280" y="430" as="targetPoint" />
          </mxGeometry>
        </mxCell>
        <mxCell id="WHee5NHzAkEV-789Csn7-10" value="&lt;font style=&quot;font-size: 8px;&quot;&gt;Interruption&lt;/font&gt;" style="edgeLabel;html=1;align=center;verticalAlign=middle;resizable=0;points=[];fontFamily=Courier New;" parent="P4oBK0C0H0kXvUHc0HSH-15" vertex="1" connectable="0">
          <mxGeometry x="0.3483" y="-2" relative="1" as="geometry">
            <mxPoint as="offset" />
          </mxGeometry>
        </mxCell>
        <mxCell id="P4oBK0C0H0kXvUHc0HSH-16" value="" style="endArrow=none;html=1;rounded=0;strokeWidth=2;fillColor=#dae8fc;strokeColor=#6c8ebf;fontFamily=Courier New;" parent="P4oBK0C0H0kXvUHc0HSH-1" edge="1">
          <mxGeometry width="50" height="50" relative="1" as="geometry">
            <mxPoint x="280" y="430" as="sourcePoint" />
            <mxPoint x="320" y="430" as="targetPoint" />
          </mxGeometry>
        </mxCell>
        <mxCell id="P4oBK0C0H0kXvUHc0HSH-17" value="" style="endArrow=open;html=1;rounded=0;endFill=0;strokeWidth=2;fontFamily=Courier New;" parent="P4oBK0C0H0kXvUHc0HSH-1" edge="1">
          <mxGeometry width="50" height="50" relative="1" as="geometry">
            <mxPoint x="80" y="480" as="sourcePoint" />
            <mxPoint x="750" y="480" as="targetPoint" />
          </mxGeometry>
        </mxCell>
        <mxCell id="P4oBK0C0H0kXvUHc0HSH-18" value="Temps" style="edgeLabel;html=1;align=center;verticalAlign=middle;resizable=0;points=[];fontFamily=Courier New;fontSize=16;" parent="P4oBK0C0H0kXvUHc0HSH-17" vertex="1" connectable="0">
          <mxGeometry x="0.5958" relative="1" as="geometry">
            <mxPoint x="-74" y="20" as="offset" />
          </mxGeometry>
        </mxCell>
        <mxCell id="P4oBK0C0H0kXvUHc0HSH-19" value="&lt;font&gt;Temporisateur&lt;/font&gt;" style="pointerEvents=1;shadow=0;dashed=0;html=1;strokeColor=#d79b00;fillColor=#ffe6cc;labelPosition=center;verticalLabelPosition=bottom;verticalAlign=top;align=center;outlineConnect=0;shape=mxgraph.veeam.cpu;fontFamily=Courier New;" parent="P4oBK0C0H0kXvUHc0HSH-1" vertex="1">
          <mxGeometry x="190" y="518.2" width="44.8" height="44.8" as="geometry" />
        </mxCell>
        <mxCell id="P4oBK0C0H0kXvUHc0HSH-20" value="" style="endArrow=open;html=1;rounded=0;endFill=0;strokeWidth=2;fontFamily=Courier New;" parent="P4oBK0C0H0kXvUHc0HSH-1" edge="1">
          <mxGeometry width="50" height="50" relative="1" as="geometry">
            <mxPoint x="80" y="480" as="sourcePoint" />
            <mxPoint x="80" y="80" as="targetPoint" />
          </mxGeometry>
        </mxCell>
        <mxCell id="P4oBK0C0H0kXvUHc0HSH-21" value="" style="endArrow=oval;html=1;fontFamily=Courier New;endFill=0;dashed=1;dashPattern=1 2;fillColor=#fff2cc;strokeColor=#d6b656;curved=1;strokeWidth=3;" parent="P4oBK0C0H0kXvUHc0HSH-1" source="P4oBK0C0H0kXvUHc0HSH-19" edge="1">
          <mxGeometry width="50" height="50" relative="1" as="geometry">
            <mxPoint x="690" y="277" as="sourcePoint" />
            <mxPoint x="280" y="430" as="targetPoint" />
            <Array as="points">
              <mxPoint x="210" y="440" />
            </Array>
          </mxGeometry>
        </mxCell>
        <mxCell id="P4oBK0C0H0kXvUHc0HSH-22" value="Matériel" style="text;html=1;align=center;verticalAlign=middle;whiteSpace=wrap;rounded=0;fontFamily=Courier New;fillColor=#f5f5f5;strokeColor=#666666;fontColor=#333333;" parent="P4oBK0C0H0kXvUHc0HSH-1" vertex="1">
          <mxGeometry y="533" width="80" height="30" as="geometry" />
        </mxCell>
        <mxCell id="WHee5NHzAkEV-789Csn7-0" value="Processus 2" style="text;html=1;strokeColor=#b85450;fillColor=#f8cecc;align=center;verticalAlign=middle;whiteSpace=wrap;rounded=0;fontFamily=Courier New;" parent="P4oBK0C0H0kXvUHc0HSH-1" vertex="1">
          <mxGeometry y="290" width="80" height="30" as="geometry" />
        </mxCell>
        <mxCell id="WHee5NHzAkEV-789Csn7-1" value="" style="endArrow=none;html=1;rounded=0;strokeWidth=2;fillColor=#f8cecc;strokeColor=#b85450;fontFamily=Courier New;" parent="P4oBK0C0H0kXvUHc0HSH-1" edge="1">
          <mxGeometry width="50" height="50" relative="1" as="geometry">
            <mxPoint x="320" y="310" as="sourcePoint" />
            <mxPoint x="400" y="310" as="targetPoint" />
          </mxGeometry>
        </mxCell>
        <mxCell id="WHee5NHzAkEV-789Csn7-2" value="" style="endArrow=open;html=1;rounded=0;dashed=1;endFill=0;strokeWidth=2;fillColor=#f5f5f5;strokeColor=#666666;fontFamily=Courier New;" parent="P4oBK0C0H0kXvUHc0HSH-1" edge="1">
          <mxGeometry width="50" height="50" relative="1" as="geometry">
            <mxPoint x="320" y="430" as="sourcePoint" />
            <mxPoint x="320" y="310" as="targetPoint" />
          </mxGeometry>
        </mxCell>
        <mxCell id="WHee5NHzAkEV-789Csn7-3" value="jump" style="edgeLabel;html=1;align=center;verticalAlign=middle;resizable=0;points=[];fontFamily=Courier New;" parent="WHee5NHzAkEV-789Csn7-2" vertex="1" connectable="0">
          <mxGeometry x="-0.3241" relative="1" as="geometry">
            <mxPoint x="20" as="offset" />
          </mxGeometry>
        </mxCell>
        <mxCell id="WHee5NHzAkEV-789Csn7-4" value="" style="endArrow=open;html=1;rounded=0;dashed=1;endFill=0;strokeWidth=2;fillColor=#f5f5f5;strokeColor=#666666;fontFamily=Courier New;" parent="P4oBK0C0H0kXvUHc0HSH-1" edge="1">
          <mxGeometry width="50" height="50" relative="1" as="geometry">
            <mxPoint x="400" y="310" as="sourcePoint" />
            <mxPoint x="400" y="430" as="targetPoint" />
          </mxGeometry>
        </mxCell>
        <mxCell id="WHee5NHzAkEV-789Csn7-11" value="&lt;font style=&quot;font-size: 8px;&quot;&gt;Interruption&lt;/font&gt;" style="edgeLabel;html=1;align=center;verticalAlign=middle;resizable=0;points=[];fontFamily=Courier New;" parent="WHee5NHzAkEV-789Csn7-4" vertex="1" connectable="0">
          <mxGeometry x="0.5655" relative="1" as="geometry">
            <mxPoint as="offset" />
          </mxGeometry>
        </mxCell>
        <mxCell id="WHee5NHzAkEV-789Csn7-5" value="" style="endArrow=none;html=1;rounded=0;strokeWidth=2;fillColor=#dae8fc;strokeColor=#6c8ebf;fontFamily=Courier New;" parent="P4oBK0C0H0kXvUHc0HSH-1" edge="1">
          <mxGeometry width="50" height="50" relative="1" as="geometry">
            <mxPoint x="400" y="430" as="sourcePoint" />
            <mxPoint x="440" y="430" as="targetPoint" />
          </mxGeometry>
        </mxCell>
        <mxCell id="WHee5NHzAkEV-789Csn7-6" value="" style="endArrow=none;html=1;rounded=0;strokeWidth=2;fillColor=#ffe6cc;strokeColor=#d79b00;fontFamily=Courier New;" parent="P4oBK0C0H0kXvUHc0HSH-1" edge="1">
          <mxGeometry width="50" height="50" relative="1" as="geometry">
            <mxPoint x="440" y="350" as="sourcePoint" />
            <mxPoint x="520" y="350" as="targetPoint" />
          </mxGeometry>
        </mxCell>
        <mxCell id="WHee5NHzAkEV-789Csn7-7" value="" style="endArrow=open;html=1;rounded=0;dashed=1;endFill=0;strokeWidth=2;fillColor=#f5f5f5;strokeColor=#666666;fontFamily=Courier New;" parent="P4oBK0C0H0kXvUHc0HSH-1" edge="1">
          <mxGeometry width="50" height="50" relative="1" as="geometry">
            <mxPoint x="440" y="430" as="sourcePoint" />
            <mxPoint x="440" y="350" as="targetPoint" />
          </mxGeometry>
        </mxCell>
        <mxCell id="WHee5NHzAkEV-789Csn7-8" value="jump" style="edgeLabel;html=1;align=center;verticalAlign=middle;resizable=0;points=[];fontFamily=Courier New;" parent="WHee5NHzAkEV-789Csn7-7" vertex="1" connectable="0">
          <mxGeometry x="-0.3241" relative="1" as="geometry">
            <mxPoint x="20" as="offset" />
          </mxGeometry>
        </mxCell>
        <mxCell id="WHee5NHzAkEV-789Csn7-9" value="" style="endArrow=oval;html=1;fontFamily=Courier New;endFill=0;dashed=1;dashPattern=1 2;fillColor=#fff2cc;strokeColor=#d6b656;curved=1;strokeWidth=3;" parent="P4oBK0C0H0kXvUHc0HSH-1" source="P4oBK0C0H0kXvUHc0HSH-19" edge="1">
          <mxGeometry width="50" height="50" relative="1" as="geometry">
            <mxPoint x="222" y="528" as="sourcePoint" />
            <mxPoint x="400" y="430" as="targetPoint" />
            <Array as="points">
              <mxPoint x="220" y="450" />
            </Array>
          </mxGeometry>
        </mxCell>
        <mxCell id="WHee5NHzAkEV-789Csn7-12" value="" style="endArrow=ERone;html=1;rounded=0;fillColor=#e1d5e7;strokeColor=#9673a6;strokeWidth=3;endFill=0;startArrow=ERone;startFill=0;fontFamily=Courier New;" parent="P4oBK0C0H0kXvUHc0HSH-1" edge="1">
          <mxGeometry width="50" height="50" relative="1" as="geometry">
            <mxPoint x="200" y="600" as="sourcePoint" />
            <mxPoint x="440" y="600" as="targetPoint" />
          </mxGeometry>
        </mxCell>
        <mxCell id="WHee5NHzAkEV-789Csn7-13" value="&lt;font style=&quot;font-size: 14px;&quot;&gt;Epoch&lt;/font&gt;" style="edgeLabel;html=1;align=center;verticalAlign=middle;resizable=0;points=[];fontFamily=Courier New;" parent="WHee5NHzAkEV-789Csn7-12" vertex="1" connectable="0">
          <mxGeometry x="0.7336" y="1" relative="1" as="geometry">
            <mxPoint x="-88" as="offset" />
          </mxGeometry>
        </mxCell>
      </root>
    </mxGraphModel>
  </diagram>
  <diagram id="lx30oBd7X0SE03iuZAXO" name="Processus">
    <mxGraphModel dx="1426" dy="862" grid="1" gridSize="10" guides="1" tooltips="1" connect="1" arrows="1" fold="1" page="1" pageScale="1" pageWidth="850" pageHeight="1100" math="0" shadow="0">
      <root>
        <mxCell id="0" />
        <mxCell id="1" parent="0" />
        <mxCell id="4UP4RbzlGuwDpfKroIZ0-12" style="edgeStyle=orthogonalEdgeStyle;rounded=0;orthogonalLoop=1;jettySize=auto;html=1;fontFamily=Courier New;strokeWidth=2;endArrow=open;endFill=0;fillColor=#ffe6cc;strokeColor=#d79b00;dashed=1;dashPattern=1 2;" parent="1" source="4UP4RbzlGuwDpfKroIZ0-1" edge="1">
          <mxGeometry relative="1" as="geometry">
            <mxPoint x="200" y="150" as="targetPoint" />
          </mxGeometry>
        </mxCell>
        <mxCell id="4UP4RbzlGuwDpfKroIZ0-2" value="Libraries" style="rounded=0;whiteSpace=wrap;html=1;fontFamily=Courier New;fontStyle=1;fillColor=#f5f5f5;strokeColor=#666666;fontColor=#333333;" parent="1" vertex="1">
          <mxGeometry x="120" y="170" width="160" height="40" as="geometry" />
        </mxCell>
        <mxCell id="4UP4RbzlGuwDpfKroIZ0-3" value="mmaps" style="rounded=0;whiteSpace=wrap;html=1;fontFamily=Courier New;fontStyle=1;fillColor=#f5f5f5;strokeColor=#666666;fontColor=#333333;" parent="1" vertex="1">
          <mxGeometry x="120" y="220" width="160" height="40" as="geometry" />
        </mxCell>
        <mxCell id="4UP4RbzlGuwDpfKroIZ0-9" value="" style="endArrow=block;html=1;rounded=0;strokeWidth=2;endFill=1;fillColor=#dae8fc;strokeColor=#6c8ebf;fontFamily=Courier New;" parent="1" edge="1">
          <mxGeometry width="50" height="50" relative="1" as="geometry">
            <mxPoint x="100" y="600" as="sourcePoint" />
            <mxPoint x="100" y="40" as="targetPoint" />
          </mxGeometry>
        </mxCell>
        <mxCell id="4UP4RbzlGuwDpfKroIZ0-10" value="&lt;font style=&quot;font-size: 31px;&quot;&gt;0&lt;/font&gt;" style="edgeLabel;html=1;align=center;verticalAlign=middle;resizable=0;points=[];horizontal=1;fontStyle=4;fontColor=#5B9BD5;fontFamily=Courier New;" parent="4UP4RbzlGuwDpfKroIZ0-9" vertex="1" connectable="0">
          <mxGeometry x="-0.9346" y="-3" relative="1" as="geometry">
            <mxPoint x="-23" y="-2" as="offset" />
          </mxGeometry>
        </mxCell>
        <mxCell id="4UP4RbzlGuwDpfKroIZ0-13" style="edgeStyle=orthogonalEdgeStyle;rounded=0;orthogonalLoop=1;jettySize=auto;html=1;fontFamily=Courier New;strokeWidth=2;endArrow=open;endFill=0;fillColor=#e1d5e7;strokeColor=#9673a6;dashed=1;dashPattern=1 2;exitX=0.5;exitY=0;exitDx=0;exitDy=0;" parent="1" source="4UP4RbzlGuwDpfKroIZ0-4" edge="1">
          <mxGeometry relative="1" as="geometry">
            <mxPoint x="200" y="280" as="targetPoint" />
            <mxPoint x="210" y="90" as="sourcePoint" />
          </mxGeometry>
        </mxCell>
        <mxCell id="4UP4RbzlGuwDpfKroIZ0-22" value="&lt;font style=&quot;font-size: 12px;&quot;&gt;malloc&lt;/font&gt;" style="edgeLabel;html=1;align=center;verticalAlign=middle;resizable=0;points=[];fontColor=#B5739D;fontStyle=1;fontFamily=Courier New;" parent="4UP4RbzlGuwDpfKroIZ0-13" vertex="1" connectable="0">
          <mxGeometry x="-0.1379" relative="1" as="geometry">
            <mxPoint as="offset" />
          </mxGeometry>
        </mxCell>
        <mxCell id="4UP4RbzlGuwDpfKroIZ0-20" value="Allocation dynamique" style="text;html=1;strokeColor=none;fillColor=none;align=center;verticalAlign=middle;whiteSpace=wrap;rounded=0;fontFamily=Courier New;fontSize=10;" parent="1" vertex="1">
          <mxGeometry x="280" y="290" width="130" height="30" as="geometry" />
        </mxCell>
        <mxCell id="4UP4RbzlGuwDpfKroIZ0-23" value="locales variables" style="rounded=0;whiteSpace=wrap;html=1;fontFamily=Courier New;fontSize=9;fillColor=#fad7ac;strokeColor=#b46504;" parent="1" vertex="1">
          <mxGeometry x="330" y="35" width="120" height="40" as="geometry" />
        </mxCell>
        <mxCell id="4UP4RbzlGuwDpfKroIZ0-24" value="cannary" style="rounded=0;whiteSpace=wrap;html=1;fontFamily=Courier New;fontSize=7;fillColor=#dae8fc;strokeColor=#6c8ebf;" parent="1" vertex="1">
          <mxGeometry x="330" y="75" width="120" height="10" as="geometry" />
        </mxCell>
        <mxCell id="4UP4RbzlGuwDpfKroIZ0-25" value="return address" style="rounded=0;whiteSpace=wrap;html=1;fontFamily=Courier New;fontSize=9;fillColor=#b0e3e6;strokeColor=#0e8088;" parent="1" vertex="1">
          <mxGeometry x="330" y="85" width="120" height="20" as="geometry" />
        </mxCell>
        <mxCell id="4UP4RbzlGuwDpfKroIZ0-26" value="Previous functions" style="rounded=0;whiteSpace=wrap;html=1;fontFamily=Courier New;fontSize=9;glass=0;fillColor=#bac8d3;strokeColor=#23445d;" parent="1" vertex="1">
          <mxGeometry x="330" y="105" width="120" height="40" as="geometry" />
        </mxCell>
        <mxCell id="4UP4RbzlGuwDpfKroIZ0-28" style="orthogonalLoop=1;jettySize=auto;html=1;exitX=1;exitY=0.5;exitDx=0;exitDy=0;entryX=0;entryY=0;entryDx=0;entryDy=0;startArrow=none;startFill=0;fillColor=#fff2cc;strokeColor=#d6b656;endArrow=oval;endFill=0;curved=1;fontFamily=Courier New;" parent="1" target="4UP4RbzlGuwDpfKroIZ0-23" edge="1">
          <mxGeometry relative="1" as="geometry">
            <mxPoint x="280" y="90" as="sourcePoint" />
            <mxPoint x="340" y="95" as="targetPoint" />
            <Array as="points">
              <mxPoint x="310" y="90" />
              <mxPoint x="300" y="20" />
            </Array>
          </mxGeometry>
        </mxCell>
        <mxCell id="TQadZ5W-Jp1PuYwjyuP3-1" value="" style="group;fontFamily=Courier New;" parent="1" vertex="1" connectable="0">
          <mxGeometry x="120" y="330" width="160" height="40" as="geometry" />
        </mxCell>
        <mxCell id="4UP4RbzlGuwDpfKroIZ0-4" value="Heap" style="rounded=0;whiteSpace=wrap;html=1;fontFamily=Courier New;fontStyle=1;fillColor=#e1d5e7;strokeColor=#9673a6;" parent="TQadZ5W-Jp1PuYwjyuP3-1" vertex="1">
          <mxGeometry width="160" height="40" as="geometry" />
        </mxCell>
        <mxCell id="4UP4RbzlGuwDpfKroIZ0-14" value="rw-" style="text;html=1;strokeColor=none;fillColor=none;align=center;verticalAlign=middle;whiteSpace=wrap;rounded=0;fontFamily=Courier New;" parent="TQadZ5W-Jp1PuYwjyuP3-1" vertex="1">
          <mxGeometry x="100" width="60" height="40" as="geometry" />
        </mxCell>
        <mxCell id="TQadZ5W-Jp1PuYwjyuP3-2" value="" style="group;fontFamily=Courier New;" parent="1" vertex="1" connectable="0">
          <mxGeometry x="120" y="380" width="160" height="40" as="geometry" />
        </mxCell>
        <mxCell id="4UP4RbzlGuwDpfKroIZ0-5" value="Bss" style="rounded=0;whiteSpace=wrap;html=1;fontFamily=Courier New;fontStyle=1;fillColor=#e1d5e7;strokeColor=#9673a6;" parent="TQadZ5W-Jp1PuYwjyuP3-2" vertex="1">
          <mxGeometry width="160" height="40" as="geometry" />
        </mxCell>
        <mxCell id="4UP4RbzlGuwDpfKroIZ0-15" value="rw-" style="text;html=1;strokeColor=none;fillColor=none;align=center;verticalAlign=middle;whiteSpace=wrap;rounded=0;fontFamily=Courier New;" parent="TQadZ5W-Jp1PuYwjyuP3-2" vertex="1">
          <mxGeometry x="100" width="60" height="40" as="geometry" />
        </mxCell>
        <mxCell id="TQadZ5W-Jp1PuYwjyuP3-3" value="" style="group;fontFamily=Courier New;" parent="1" vertex="1" connectable="0">
          <mxGeometry x="120" y="430" width="160" height="40" as="geometry" />
        </mxCell>
        <mxCell id="4UP4RbzlGuwDpfKroIZ0-6" value="Data" style="rounded=0;whiteSpace=wrap;html=1;fontFamily=Courier New;fontStyle=1;fillColor=#e1d5e7;strokeColor=#9673a6;" parent="TQadZ5W-Jp1PuYwjyuP3-3" vertex="1">
          <mxGeometry width="160" height="40" as="geometry" />
        </mxCell>
        <mxCell id="4UP4RbzlGuwDpfKroIZ0-16" value="rw-" style="text;html=1;strokeColor=none;fillColor=none;align=center;verticalAlign=middle;whiteSpace=wrap;rounded=0;fontFamily=Courier New;" parent="TQadZ5W-Jp1PuYwjyuP3-3" vertex="1">
          <mxGeometry x="100" width="60" height="40" as="geometry" />
        </mxCell>
        <mxCell id="TQadZ5W-Jp1PuYwjyuP3-4" value="" style="group;fontFamily=Courier New;" parent="1" vertex="1" connectable="0">
          <mxGeometry x="120" y="480" width="160" height="40" as="geometry" />
        </mxCell>
        <mxCell id="4UP4RbzlGuwDpfKroIZ0-7" value="RO Data" style="rounded=0;whiteSpace=wrap;html=1;fontFamily=Courier New;fontStyle=1;fillColor=#f8cecc;strokeColor=#b85450;" parent="TQadZ5W-Jp1PuYwjyuP3-4" vertex="1">
          <mxGeometry width="160" height="40" as="geometry" />
        </mxCell>
        <mxCell id="4UP4RbzlGuwDpfKroIZ0-17" value="r--" style="text;html=1;strokeColor=none;fillColor=none;align=center;verticalAlign=middle;whiteSpace=wrap;rounded=0;fontFamily=Courier New;" parent="TQadZ5W-Jp1PuYwjyuP3-4" vertex="1">
          <mxGeometry x="100" width="60" height="40" as="geometry" />
        </mxCell>
        <mxCell id="TQadZ5W-Jp1PuYwjyuP3-5" value="" style="group;fontFamily=Courier New;" parent="1" vertex="1" connectable="0">
          <mxGeometry x="120" y="530" width="160" height="40" as="geometry" />
        </mxCell>
        <mxCell id="4UP4RbzlGuwDpfKroIZ0-8" value="Text" style="rounded=0;whiteSpace=wrap;html=1;fontFamily=Courier New;fontStyle=1;fillColor=#d5e8d4;strokeColor=#82b366;" parent="TQadZ5W-Jp1PuYwjyuP3-5" vertex="1">
          <mxGeometry width="160" height="40" as="geometry" />
        </mxCell>
        <mxCell id="4UP4RbzlGuwDpfKroIZ0-18" value="r-x" style="text;html=1;strokeColor=none;fillColor=none;align=center;verticalAlign=middle;whiteSpace=wrap;rounded=0;fontFamily=Courier New;" parent="TQadZ5W-Jp1PuYwjyuP3-5" vertex="1">
          <mxGeometry x="100" width="60" height="40" as="geometry" />
        </mxCell>
        <mxCell id="TQadZ5W-Jp1PuYwjyuP3-6" value="" style="group;fontFamily=Courier New;" parent="1" vertex="1" connectable="0">
          <mxGeometry x="120" y="70" width="160" height="40" as="geometry" />
        </mxCell>
        <mxCell id="4UP4RbzlGuwDpfKroIZ0-1" value="Stack" style="rounded=0;whiteSpace=wrap;html=1;fontFamily=Courier New;fontStyle=1;fillColor=#ffe6cc;strokeColor=#d79b00;" parent="TQadZ5W-Jp1PuYwjyuP3-6" vertex="1">
          <mxGeometry width="160" height="40" as="geometry" />
        </mxCell>
        <mxCell id="4UP4RbzlGuwDpfKroIZ0-11" value="rw-/x" style="text;html=1;strokeColor=none;fillColor=none;align=center;verticalAlign=middle;whiteSpace=wrap;rounded=0;fontFamily=Courier New;" parent="TQadZ5W-Jp1PuYwjyuP3-6" vertex="1">
          <mxGeometry x="100" width="60" height="40" as="geometry" />
        </mxCell>
        <mxCell id="OA-uBvwxHhrsFo5UzzPI-3" style="edgeStyle=orthogonalEdgeStyle;orthogonalLoop=1;jettySize=auto;html=1;entryX=0.961;entryY=1.072;entryDx=0;entryDy=0;entryPerimeter=0;curved=1;strokeColor=none;fontFamily=Courier New;" parent="1" source="OA-uBvwxHhrsFo5UzzPI-2" target="4UP4RbzlGuwDpfKroIZ0-23" edge="1">
          <mxGeometry relative="1" as="geometry" />
        </mxCell>
        <mxCell id="OA-uBvwxHhrsFo5UzzPI-5" style="edgeStyle=orthogonalEdgeStyle;orthogonalLoop=1;jettySize=auto;html=1;curved=1;strokeWidth=2;dashed=1;dashPattern=1 1;endArrow=oval;endFill=0;fillColor=#dae8fc;strokeColor=#6c8ebf;fontFamily=Courier New;" parent="1" source="OA-uBvwxHhrsFo5UzzPI-2" edge="1">
          <mxGeometry relative="1" as="geometry">
            <mxPoint x="450" y="80" as="targetPoint" />
            <Array as="points">
              <mxPoint x="480" y="90" />
              <mxPoint x="480" y="80" />
            </Array>
          </mxGeometry>
        </mxCell>
        <mxCell id="OA-uBvwxHhrsFo5UzzPI-2" value="" style="pointerEvents=1;shadow=0;dashed=0;html=1;strokeColor=#6c8ebf;fillColor=#dae8fc;labelPosition=center;verticalLabelPosition=bottom;verticalAlign=top;align=center;outlineConnect=0;shape=mxgraph.veeam.cpu;fontFamily=Courier New;" parent="1" vertex="1">
          <mxGeometry x="500" y="65.19999999999999" width="44.8" height="44.8" as="geometry" />
        </mxCell>
      </root>
    </mxGraphModel>
  </diagram>
  <diagram id="goYQCEIOMSuBMxZH0vJ3" name="States">
    <mxGraphModel dx="1426" dy="862" grid="1" gridSize="10" guides="1" tooltips="1" connect="1" arrows="1" fold="1" page="1" pageScale="1" pageWidth="850" pageHeight="1100" math="0" shadow="0">
      <root>
        <mxCell id="0" />
        <mxCell id="1" parent="0" />
        <mxCell id="tcRxNc7Pqy-1UqqHOYtv-1" value="" style="endArrow=none;html=1;rounded=0;strokeWidth=3;endFill=0;dashed=1;fontFamily=Courier New;" parent="1" edge="1">
          <mxGeometry width="50" height="50" relative="1" as="geometry">
            <mxPoint x="50" y="160" as="sourcePoint" />
            <mxPoint x="800" y="160" as="targetPoint" />
          </mxGeometry>
        </mxCell>
        <mxCell id="tcRxNc7Pqy-1UqqHOYtv-2" value="Kernel space" style="text;html=1;strokeColor=none;fillColor=none;align=center;verticalAlign=middle;whiteSpace=wrap;rounded=0;fontStyle=1;fontFamily=Courier New;fontSize=18;" parent="1" vertex="1">
          <mxGeometry x="40" y="290" width="150" height="40" as="geometry" />
        </mxCell>
        <mxCell id="tcRxNc7Pqy-1UqqHOYtv-3" value="User space" style="text;html=1;strokeColor=none;fillColor=none;align=center;verticalAlign=middle;whiteSpace=wrap;rounded=0;fontStyle=1;fontFamily=Courier New;fontSize=18;" parent="1" vertex="1">
          <mxGeometry x="40" y="80" width="130" height="40" as="geometry" />
        </mxCell>
        <mxCell id="tcRxNc7Pqy-1UqqHOYtv-11" style="edgeStyle=orthogonalEdgeStyle;rounded=0;orthogonalLoop=1;jettySize=auto;html=1;entryX=0;entryY=0.5;entryDx=0;entryDy=0;fillColor=#fff2cc;strokeColor=#d6b656;strokeWidth=3;endArrow=blockThin;endFill=1;dashed=1;dashPattern=1 1;fontFamily=Courier New;" parent="1" source="tcRxNc7Pqy-1UqqHOYtv-4" target="tcRxNc7Pqy-1UqqHOYtv-6" edge="1">
          <mxGeometry relative="1" as="geometry" />
        </mxCell>
        <mxCell id="tcRxNc7Pqy-1UqqHOYtv-4" value="Created" style="rounded=1;whiteSpace=wrap;html=1;arcSize=50;fillColor=#fad9d5;strokeColor=#ae4132;fontFamily=Courier New;" parent="1" vertex="1">
          <mxGeometry x="80" y="210" width="120" height="60" as="geometry" />
        </mxCell>
        <mxCell id="tcRxNc7Pqy-1UqqHOYtv-12" style="orthogonalLoop=1;jettySize=auto;html=1;exitX=0.75;exitY=0;exitDx=0;exitDy=0;entryX=0.25;entryY=0;entryDx=0;entryDy=0;curved=1;fillColor=#fff2cc;strokeColor=#d6b656;strokeWidth=3;endArrow=blockThin;endFill=1;dashed=1;dashPattern=1 1;fontFamily=Courier New;" parent="1" source="tcRxNc7Pqy-1UqqHOYtv-6" edge="1">
          <mxGeometry relative="1" as="geometry">
            <mxPoint x="315" y="210" as="sourcePoint" />
            <mxPoint x="465" y="210" as="targetPoint" />
            <Array as="points">
              <mxPoint x="430" y="170" />
            </Array>
          </mxGeometry>
        </mxCell>
        <mxCell id="tcRxNc7Pqy-1UqqHOYtv-15" value="&lt;b&gt;&lt;font color=&quot;#d6b656&quot;&gt;elected&lt;/font&gt;&lt;/b&gt;" style="edgeLabel;html=1;align=center;verticalAlign=middle;resizable=0;points=[];fontFamily=Courier New;" parent="tcRxNc7Pqy-1UqqHOYtv-12" vertex="1" connectable="0">
          <mxGeometry x="-0.0388" y="-6" relative="1" as="geometry">
            <mxPoint x="-19" y="-8" as="offset" />
          </mxGeometry>
        </mxCell>
        <mxCell id="tcRxNc7Pqy-1UqqHOYtv-6" value="Ready" style="rounded=1;whiteSpace=wrap;html=1;arcSize=50;fillColor=#fad9d5;strokeColor=#ae4132;fontFamily=Courier New;" parent="1" vertex="1">
          <mxGeometry x="230" y="210" width="120" height="60" as="geometry" />
        </mxCell>
        <mxCell id="tcRxNc7Pqy-1UqqHOYtv-7" value="Running" style="rounded=1;whiteSpace=wrap;html=1;arcSize=50;fillColor=#fad9d5;strokeColor=#ae4132;fontFamily=Courier New;" parent="1" vertex="1">
          <mxGeometry x="440" y="40" width="120" height="60" as="geometry" />
        </mxCell>
        <mxCell id="tcRxNc7Pqy-1UqqHOYtv-9" style="orthogonalLoop=1;jettySize=auto;html=1;entryX=0;entryY=0.5;entryDx=0;entryDy=0;curved=1;exitX=0.5;exitY=0;exitDx=0;exitDy=0;fillColor=#fff2cc;strokeColor=#d6b656;strokeWidth=3;endArrow=blockThin;endFill=1;dashed=1;dashPattern=1 1;fontFamily=Courier New;" parent="1" source="tcRxNc7Pqy-1UqqHOYtv-8" target="tcRxNc7Pqy-1UqqHOYtv-7" edge="1">
          <mxGeometry relative="1" as="geometry">
            <Array as="points">
              <mxPoint x="380" y="160" />
            </Array>
          </mxGeometry>
        </mxCell>
        <mxCell id="tcRxNc7Pqy-1UqqHOYtv-16" value="&lt;b&gt;iret&lt;/b&gt;" style="edgeLabel;html=1;align=center;verticalAlign=middle;resizable=0;points=[];fontFamily=Courier New;fontColor=#D6B656;" parent="tcRxNc7Pqy-1UqqHOYtv-9" vertex="1" connectable="0">
          <mxGeometry x="0.7084" y="-2" relative="1" as="geometry">
            <mxPoint x="-34" y="43" as="offset" />
          </mxGeometry>
        </mxCell>
        <mxCell id="tcRxNc7Pqy-1UqqHOYtv-8" value="Running" style="rounded=1;whiteSpace=wrap;html=1;arcSize=50;fillColor=#fad9d5;strokeColor=#ae4132;fontFamily=Courier New;" parent="1" vertex="1">
          <mxGeometry x="440" y="210" width="120" height="60" as="geometry" />
        </mxCell>
        <mxCell id="tcRxNc7Pqy-1UqqHOYtv-10" style="orthogonalLoop=1;jettySize=auto;html=1;entryX=1;entryY=0.25;entryDx=0;entryDy=0;curved=1;exitX=0.5;exitY=1;exitDx=0;exitDy=0;fillColor=#fff2cc;strokeColor=#d6b656;strokeWidth=3;endArrow=blockThin;endFill=1;dashed=1;dashPattern=1 1;fontFamily=Courier New;" parent="1" source="tcRxNc7Pqy-1UqqHOYtv-7" target="tcRxNc7Pqy-1UqqHOYtv-8" edge="1">
          <mxGeometry relative="1" as="geometry">
            <mxPoint x="430" y="245" as="sourcePoint" />
            <mxPoint x="430" y="80" as="targetPoint" />
            <Array as="points">
              <mxPoint x="600" y="180" />
            </Array>
          </mxGeometry>
        </mxCell>
        <mxCell id="tcRxNc7Pqy-1UqqHOYtv-17" value="&lt;b&gt;syscall / interrupt /exception&lt;/b&gt;" style="edgeLabel;html=1;align=center;verticalAlign=middle;resizable=0;points=[];fontFamily=Courier New;fontColor=#D6B656;" parent="tcRxNc7Pqy-1UqqHOYtv-10" vertex="1" connectable="0">
          <mxGeometry x="-0.3803" y="-6" relative="1" as="geometry">
            <mxPoint x="112" y="-11" as="offset" />
          </mxGeometry>
        </mxCell>
        <mxCell id="tcRxNc7Pqy-1UqqHOYtv-13" style="orthogonalLoop=1;jettySize=auto;html=1;entryX=0.75;entryY=1;entryDx=0;entryDy=0;curved=1;fillColor=#fff2cc;strokeColor=#d6b656;strokeWidth=3;endArrow=blockThin;endFill=1;dashed=1;dashPattern=1 1;exitX=0.25;exitY=1;exitDx=0;exitDy=0;fontFamily=Courier New;" parent="1" source="tcRxNc7Pqy-1UqqHOYtv-8" target="tcRxNc7Pqy-1UqqHOYtv-6" edge="1">
          <mxGeometry relative="1" as="geometry">
            <mxPoint x="340" y="315" as="sourcePoint" />
            <mxPoint x="420" y="330" as="targetPoint" />
            <Array as="points">
              <mxPoint x="340" y="310" />
            </Array>
          </mxGeometry>
        </mxCell>
        <mxCell id="tcRxNc7Pqy-1UqqHOYtv-14" value="&lt;b&gt;&lt;font color=&quot;#d6b656&quot;&gt;preempted&lt;/font&gt;&lt;/b&gt;" style="edgeLabel;html=1;align=center;verticalAlign=middle;resizable=0;points=[];fontFamily=Courier New;" parent="tcRxNc7Pqy-1UqqHOYtv-13" vertex="1" connectable="0">
          <mxGeometry x="-0.2748" y="-15" relative="1" as="geometry">
            <mxPoint x="-9" y="29" as="offset" />
          </mxGeometry>
        </mxCell>
        <mxCell id="tcRxNc7Pqy-1UqqHOYtv-24" value="Blocked" style="rounded=1;whiteSpace=wrap;html=1;arcSize=50;fillColor=#fad9d5;strokeColor=#ae4132;fontFamily=Courier New;" parent="1" vertex="1">
          <mxGeometry x="650" y="210" width="120" height="60" as="geometry" />
        </mxCell>
        <mxCell id="tcRxNc7Pqy-1UqqHOYtv-25" style="orthogonalLoop=1;jettySize=auto;html=1;entryX=0.25;entryY=0;entryDx=0;entryDy=0;curved=1;exitX=1;exitY=0.5;exitDx=0;exitDy=0;fillColor=#fff2cc;strokeColor=#d6b656;strokeWidth=3;endArrow=blockThin;endFill=1;dashed=1;dashPattern=1 1;fontFamily=Courier New;" parent="1" source="tcRxNc7Pqy-1UqqHOYtv-8" target="tcRxNc7Pqy-1UqqHOYtv-24" edge="1">
          <mxGeometry relative="1" as="geometry">
            <mxPoint x="510" y="110" as="sourcePoint" />
            <mxPoint x="570" y="235" as="targetPoint" />
            <Array as="points">
              <mxPoint x="610" y="190" />
            </Array>
          </mxGeometry>
        </mxCell>
        <mxCell id="tcRxNc7Pqy-1UqqHOYtv-26" value="&lt;b&gt;forced to wait&lt;/b&gt;" style="edgeLabel;html=1;align=center;verticalAlign=middle;resizable=0;points=[];fontFamily=Courier New;fontColor=#D6B656;" parent="tcRxNc7Pqy-1UqqHOYtv-25" vertex="1" connectable="0">
          <mxGeometry x="-0.3803" y="-6" relative="1" as="geometry">
            <mxPoint x="75" y="-23" as="offset" />
          </mxGeometry>
        </mxCell>
        <mxCell id="tcRxNc7Pqy-1UqqHOYtv-27" value="zombie" style="rounded=1;whiteSpace=wrap;html=1;arcSize=50;fillColor=#fad9d5;strokeColor=#ae4132;fontFamily=Courier New;" parent="1" vertex="1">
          <mxGeometry x="430" y="310" width="120" height="60" as="geometry" />
        </mxCell>
        <mxCell id="tcRxNc7Pqy-1UqqHOYtv-28" style="orthogonalLoop=1;jettySize=auto;html=1;entryX=0.5;entryY=1;entryDx=0;entryDy=0;curved=1;exitX=0.5;exitY=1;exitDx=0;exitDy=0;fillColor=#fff2cc;strokeColor=#d6b656;strokeWidth=3;endArrow=blockThin;endFill=1;dashed=1;dashPattern=1 1;fontFamily=Courier New;" parent="1" source="tcRxNc7Pqy-1UqqHOYtv-24" target="tcRxNc7Pqy-1UqqHOYtv-6" edge="1">
          <mxGeometry relative="1" as="geometry">
            <mxPoint x="570" y="250" as="sourcePoint" />
            <mxPoint x="690" y="220" as="targetPoint" />
            <Array as="points">
              <mxPoint x="730" y="370" />
              <mxPoint x="290" y="430" />
            </Array>
          </mxGeometry>
        </mxCell>
        <mxCell id="tcRxNc7Pqy-1UqqHOYtv-29" value="&lt;b&gt;Awakened&lt;br&gt;&lt;/b&gt;" style="edgeLabel;html=1;align=center;verticalAlign=middle;resizable=0;points=[];fontFamily=Courier New;fontColor=#D6B656;" parent="tcRxNc7Pqy-1UqqHOYtv-28" vertex="1" connectable="0">
          <mxGeometry x="-0.3803" y="-6" relative="1" as="geometry">
            <mxPoint x="-184" y="40" as="offset" />
          </mxGeometry>
        </mxCell>
        <mxCell id="tcRxNc7Pqy-1UqqHOYtv-30" style="orthogonalLoop=1;jettySize=auto;html=1;entryX=1;entryY=0.5;entryDx=0;entryDy=0;curved=1;exitX=1;exitY=0.75;exitDx=0;exitDy=0;fillColor=#fff2cc;strokeColor=#d6b656;strokeWidth=3;endArrow=blockThin;endFill=1;dashed=1;dashPattern=1 1;fontFamily=Courier New;" parent="1" source="tcRxNc7Pqy-1UqqHOYtv-8" target="tcRxNc7Pqy-1UqqHOYtv-27" edge="1">
          <mxGeometry relative="1" as="geometry">
            <mxPoint x="570" y="250" as="sourcePoint" />
            <mxPoint x="690" y="220" as="targetPoint" />
            <Array as="points">
              <mxPoint x="620" y="270" />
            </Array>
          </mxGeometry>
        </mxCell>
        <mxCell id="tcRxNc7Pqy-1UqqHOYtv-31" value="&lt;b&gt;Exit&lt;/b&gt;" style="edgeLabel;html=1;align=center;verticalAlign=middle;resizable=0;points=[];fontFamily=Courier New;fontColor=#D6B656;" parent="tcRxNc7Pqy-1UqqHOYtv-30" vertex="1" connectable="0">
          <mxGeometry x="-0.3803" y="-6" relative="1" as="geometry">
            <mxPoint x="3" y="17" as="offset" />
          </mxGeometry>
        </mxCell>
      </root>
    </mxGraphModel>
  </diagram>
  <diagram id="kq8pcMDZvYWXBPYs7Ehs" name="Isolations">
    <mxGraphModel dx="1426" dy="862" grid="1" gridSize="10" guides="1" tooltips="1" connect="1" arrows="1" fold="1" page="1" pageScale="1" pageWidth="850" pageHeight="1100" math="0" shadow="0">
      <root>
        <mxCell id="0" />
        <mxCell id="1" parent="0" />
        <mxCell id="tDEOqY7AcDbqDsR1Qlcw-16" value="Processus" style="ellipse;whiteSpace=wrap;html=1;aspect=fixed;fontFamily=Courier New;fillColor=#bac8d3;strokeColor=#23445d;" parent="1" vertex="1">
          <mxGeometry x="40" y="40" width="80" height="80" as="geometry" />
        </mxCell>
        <mxCell id="tDEOqY7AcDbqDsR1Qlcw-17" value="" style="rounded=0;orthogonalLoop=1;jettySize=auto;html=1;endArrow=none;endFill=0;startArrow=none;startFill=0;entryX=1;entryY=0.5;entryDx=0;entryDy=0;exitX=0;exitY=0.5;exitDx=0;exitDy=0;strokeWidth=2;fillColor=#bac8d3;strokeColor=#23445d;fontFamily=Courier New;" parent="1" source="tDEOqY7AcDbqDsR1Qlcw-18" target="tDEOqY7AcDbqDsR1Qlcw-16" edge="1">
          <mxGeometry relative="1" as="geometry" />
        </mxCell>
        <mxCell id="tDEOqY7AcDbqDsR1Qlcw-18" value="Kernel" style="ellipse;whiteSpace=wrap;html=1;aspect=fixed;fontFamily=Courier New;fillColor=#fad7ac;strokeColor=#b46504;" parent="1" vertex="1">
          <mxGeometry x="170" y="40" width="80" height="80" as="geometry" />
        </mxCell>
        <mxCell id="tDEOqY7AcDbqDsR1Qlcw-20" value="Processus" style="ellipse;whiteSpace=wrap;html=1;aspect=fixed;fontFamily=Courier New;fillColor=#bac8d3;strokeColor=#23445d;" parent="1" vertex="1">
          <mxGeometry x="40" y="280" width="80" height="80" as="geometry" />
        </mxCell>
        <mxCell id="tDEOqY7AcDbqDsR1Qlcw-21" value="Containers" style="ellipse;whiteSpace=wrap;html=1;aspect=fixed;fontFamily=Courier New;fillColor=#b1ddf0;strokeColor=#10739e;" parent="1" vertex="1">
          <mxGeometry x="170" y="280" width="80" height="80" as="geometry" />
        </mxCell>
        <mxCell id="tDEOqY7AcDbqDsR1Qlcw-23" value="Processus" style="ellipse;whiteSpace=wrap;html=1;aspect=fixed;fontFamily=Courier New;fillColor=#bac8d3;strokeColor=#23445d;" parent="1" vertex="1">
          <mxGeometry x="40" y="160" width="80" height="80" as="geometry" />
        </mxCell>
        <mxCell id="tDEOqY7AcDbqDsR1Qlcw-24" value="" style="edgeStyle=orthogonalEdgeStyle;rounded=0;orthogonalLoop=1;jettySize=auto;html=1;endArrow=diamond;endFill=0;strokeWidth=2;fillColor=#bac8d3;strokeColor=#23445d;fontFamily=Courier New;" parent="1" source="tDEOqY7AcDbqDsR1Qlcw-25" target="tDEOqY7AcDbqDsR1Qlcw-23" edge="1">
          <mxGeometry relative="1" as="geometry" />
        </mxCell>
        <mxCell id="tDEOqY7AcDbqDsR1Qlcw-25" value="Selinux" style="ellipse;whiteSpace=wrap;html=1;aspect=fixed;fontFamily=Courier New;fillColor=#d5e8d4;strokeColor=#82b366;" parent="1" vertex="1">
          <mxGeometry x="170" y="160" width="80" height="80" as="geometry" />
        </mxCell>
        <mxCell id="tDEOqY7AcDbqDsR1Qlcw-26" value="Kernel" style="ellipse;whiteSpace=wrap;html=1;aspect=fixed;fontFamily=Courier New;fillColor=#fad7ac;strokeColor=#b46504;" parent="1" vertex="1">
          <mxGeometry x="290" y="160" width="80" height="80" as="geometry" />
        </mxCell>
        <mxCell id="tDEOqY7AcDbqDsR1Qlcw-27" value="" style="edgeStyle=orthogonalEdgeStyle;rounded=0;orthogonalLoop=1;jettySize=auto;html=1;endArrow=none;endFill=0;startArrow=none;startFill=0;entryX=0;entryY=0.5;entryDx=0;entryDy=0;exitX=1;exitY=0.5;exitDx=0;exitDy=0;strokeWidth=2;fillColor=#bac8d3;strokeColor=#23445d;fontFamily=Courier New;" parent="1" source="tDEOqY7AcDbqDsR1Qlcw-25" target="tDEOqY7AcDbqDsR1Qlcw-26" edge="1">
          <mxGeometry relative="1" as="geometry">
            <mxPoint x="118" y="118" as="sourcePoint" />
            <mxPoint x="192" y="118" as="targetPoint" />
          </mxGeometry>
        </mxCell>
        <mxCell id="tDEOqY7AcDbqDsR1Qlcw-28" value="Kernel" style="ellipse;whiteSpace=wrap;html=1;aspect=fixed;fontFamily=Courier New;fillColor=#fad7ac;strokeColor=#b46504;" parent="1" vertex="1">
          <mxGeometry x="290" y="280" width="80" height="80" as="geometry" />
        </mxCell>
        <mxCell id="tDEOqY7AcDbqDsR1Qlcw-29" value="" style="edgeStyle=orthogonalEdgeStyle;rounded=0;orthogonalLoop=1;jettySize=auto;html=1;endArrow=none;endFill=0;startArrow=none;startFill=0;entryX=0;entryY=0.5;entryDx=0;entryDy=0;exitX=1;exitY=0.5;exitDx=0;exitDy=0;strokeWidth=2;fillColor=#bac8d3;strokeColor=#23445d;fontFamily=Courier New;" parent="1" source="tDEOqY7AcDbqDsR1Qlcw-21" target="tDEOqY7AcDbqDsR1Qlcw-28" edge="1">
          <mxGeometry relative="1" as="geometry">
            <mxPoint x="260" y="320" as="sourcePoint" />
            <mxPoint x="202" y="238" as="targetPoint" />
          </mxGeometry>
        </mxCell>
        <mxCell id="tDEOqY7AcDbqDsR1Qlcw-30" value="Processus" style="ellipse;whiteSpace=wrap;html=1;aspect=fixed;fontFamily=Courier New;fillColor=#bac8d3;strokeColor=#23445d;" parent="1" vertex="1">
          <mxGeometry x="40" y="400" width="80" height="80" as="geometry" />
        </mxCell>
        <mxCell id="tDEOqY7AcDbqDsR1Qlcw-31" value="Lambdas" style="ellipse;whiteSpace=wrap;html=1;aspect=fixed;fontFamily=Courier New;fillColor=#d0cee2;strokeColor=#56517e;" parent="1" vertex="1">
          <mxGeometry x="170" y="400" width="80" height="80" as="geometry" />
        </mxCell>
        <mxCell id="tDEOqY7AcDbqDsR1Qlcw-32" value="" style="edgeStyle=orthogonalEdgeStyle;rounded=0;orthogonalLoop=1;jettySize=auto;html=1;endArrow=none;endFill=0;startArrow=diamond;startFill=1;exitX=1;exitY=0.5;exitDx=0;exitDy=0;strokeWidth=2;fillColor=#bac8d3;strokeColor=#23445d;fontFamily=Courier New;" parent="1" source="tDEOqY7AcDbqDsR1Qlcw-30" edge="1">
          <mxGeometry relative="1" as="geometry">
            <mxPoint x="118" y="358" as="sourcePoint" />
            <mxPoint x="170" y="440" as="targetPoint" />
          </mxGeometry>
        </mxCell>
        <mxCell id="tDEOqY7AcDbqDsR1Qlcw-33" value="Containers" style="ellipse;whiteSpace=wrap;html=1;aspect=fixed;fontFamily=Courier New;fillColor=#b1ddf0;strokeColor=#10739e;" parent="1" vertex="1">
          <mxGeometry x="290" y="400" width="80" height="80" as="geometry" />
        </mxCell>
        <mxCell id="tDEOqY7AcDbqDsR1Qlcw-34" value="" style="edgeStyle=orthogonalEdgeStyle;rounded=0;orthogonalLoop=1;jettySize=auto;html=1;endArrow=none;endFill=0;startArrow=none;startFill=0;entryX=0;entryY=0.5;entryDx=0;entryDy=0;exitX=1;exitY=0.5;exitDx=0;exitDy=0;strokeWidth=2;fillColor=#bac8d3;strokeColor=#23445d;fontFamily=Courier New;" parent="1" source="tDEOqY7AcDbqDsR1Qlcw-31" target="tDEOqY7AcDbqDsR1Qlcw-33" edge="1">
          <mxGeometry relative="1" as="geometry">
            <mxPoint x="260" y="440" as="sourcePoint" />
            <mxPoint x="202" y="358" as="targetPoint" />
          </mxGeometry>
        </mxCell>
        <mxCell id="tDEOqY7AcDbqDsR1Qlcw-36" value="Kernel" style="ellipse;whiteSpace=wrap;html=1;aspect=fixed;fontFamily=Courier New;fillColor=#fad7ac;strokeColor=#b46504;" parent="1" vertex="1">
          <mxGeometry x="430" y="400" width="80" height="80" as="geometry" />
        </mxCell>
        <mxCell id="tDEOqY7AcDbqDsR1Qlcw-37" value="" style="edgeStyle=orthogonalEdgeStyle;rounded=0;orthogonalLoop=1;jettySize=auto;html=1;endArrow=none;endFill=0;startArrow=none;startFill=0;entryX=0;entryY=0.5;entryDx=0;entryDy=0;exitX=1;exitY=0.5;exitDx=0;exitDy=0;strokeWidth=2;fillColor=#bac8d3;strokeColor=#23445d;fontFamily=Courier New;" parent="1" source="tDEOqY7AcDbqDsR1Qlcw-33" target="tDEOqY7AcDbqDsR1Qlcw-36" edge="1">
          <mxGeometry relative="1" as="geometry">
            <mxPoint x="260" y="450" as="sourcePoint" />
            <mxPoint x="290" y="450" as="targetPoint" />
          </mxGeometry>
        </mxCell>
        <mxCell id="tDEOqY7AcDbqDsR1Qlcw-44" value="" style="edgeStyle=orthogonalEdgeStyle;rounded=0;orthogonalLoop=1;jettySize=auto;html=1;endArrow=none;endFill=0;startArrow=diamond;startFill=1;exitX=1;exitY=0.5;exitDx=0;exitDy=0;strokeWidth=2;fillColor=#bac8d3;strokeColor=#23445d;entryX=0;entryY=0.5;entryDx=0;entryDy=0;fontFamily=Courier New;" parent="1" source="tDEOqY7AcDbqDsR1Qlcw-20" target="tDEOqY7AcDbqDsR1Qlcw-21" edge="1">
          <mxGeometry relative="1" as="geometry">
            <mxPoint x="130" y="450" as="sourcePoint" />
            <mxPoint x="180" y="450" as="targetPoint" />
          </mxGeometry>
        </mxCell>
      </root>
    </mxGraphModel>
  </diagram>
  <diagram id="KzzEt8eCCFwHmLEFVjeE" name="Comparaison isolations">
    <mxGraphModel dx="1426" dy="862" grid="1" gridSize="10" guides="1" tooltips="1" connect="1" arrows="1" fold="1" page="1" pageScale="1" pageWidth="850" pageHeight="1100" math="0" shadow="0">
      <root>
        <mxCell id="0" />
        <mxCell id="1" parent="0" />
        <mxCell id="2cNNUhlDuHHkH7qkVjv4-26" value="" style="group;fontFamily=Courier New;" parent="1" vertex="1" connectable="0">
          <mxGeometry x="25" y="40" width="240" height="280" as="geometry" />
        </mxCell>
        <mxCell id="2cNNUhlDuHHkH7qkVjv4-2" value="Selinux" style="rounded=0;whiteSpace=wrap;html=1;verticalAlign=top;fontFamily=Courier New;dashed=1;strokeWidth=3;fontSize=18;fontStyle=1;fillColor=none;" parent="2cNNUhlDuHHkH7qkVjv4-26" vertex="1">
          <mxGeometry width="240" height="280" as="geometry" />
        </mxCell>
        <mxCell id="2cNNUhlDuHHkH7qkVjv4-3" value="" style="sketch=0;pointerEvents=1;shadow=0;dashed=0;html=1;strokeColor=#b85450;fillColor=#f8cecc;labelPosition=center;verticalLabelPosition=bottom;verticalAlign=top;outlineConnect=0;align=center;shape=mxgraph.office.devices.hard_disk;fontFamily=Courier New;" parent="2cNNUhlDuHHkH7qkVjv4-26" vertex="1">
          <mxGeometry x="20" y="190" width="40" height="54" as="geometry" />
        </mxCell>
        <mxCell id="2cNNUhlDuHHkH7qkVjv4-9" value="" style="pointerEvents=1;shadow=0;dashed=0;html=1;strokeColor=#82b366;fillColor=#d5e8d4;labelPosition=center;verticalLabelPosition=bottom;verticalAlign=top;align=center;outlineConnect=0;shape=mxgraph.veeam.ram;fontFamily=Courier New;" parent="2cNNUhlDuHHkH7qkVjv4-26" vertex="1">
          <mxGeometry x="70" y="120" width="115.24" height="60" as="geometry" />
        </mxCell>
        <mxCell id="2cNNUhlDuHHkH7qkVjv4-17" value="" style="sketch=0;pointerEvents=1;shadow=0;dashed=0;html=1;strokeColor=#d79b00;fillColor=#ffe6cc;aspect=fixed;labelPosition=center;verticalLabelPosition=bottom;verticalAlign=top;align=center;outlineConnect=0;shape=mxgraph.vvd.networks;fontFamily=Courier New;" parent="2cNNUhlDuHHkH7qkVjv4-26" vertex="1">
          <mxGeometry x="122.44999999999999" y="193.5" width="82.79" height="50.5" as="geometry" />
        </mxCell>
        <mxCell id="2cNNUhlDuHHkH7qkVjv4-18" value="" style="pointerEvents=1;shadow=0;dashed=0;html=1;strokeColor=#10739e;fillColor=#b1ddf0;labelPosition=center;verticalLabelPosition=bottom;verticalAlign=top;align=center;outlineConnect=0;shape=mxgraph.veeam.cpu;fontFamily=Courier New;" parent="2cNNUhlDuHHkH7qkVjv4-26" vertex="1">
          <mxGeometry x="20" y="40" width="60" height="60" as="geometry" />
        </mxCell>
        <mxCell id="2cNNUhlDuHHkH7qkVjv4-25" value="" style="sketch=0;html=1;dashed=0;whitespace=wrap;fillColor=#bac8d3;strokeColor=#23445d;points=[[0.005,0.63,0],[0.1,0.2,0],[0.9,0.2,0],[0.5,0,0],[0.995,0.63,0],[0.72,0.99,0],[0.5,1,0],[0.28,0.99,0]];verticalLabelPosition=bottom;align=center;verticalAlign=top;shape=mxgraph.kubernetes.icon;prIcon=crd;fontFamily=Courier New;" parent="2cNNUhlDuHHkH7qkVjv4-26" vertex="1">
          <mxGeometry x="130" y="40" width="70.98" height="60" as="geometry" />
        </mxCell>
        <mxCell id="2cNNUhlDuHHkH7qkVjv4-27" value="" style="group;fontFamily=Courier New;" parent="1" vertex="1" connectable="0">
          <mxGeometry x="305" y="40" width="240" height="280" as="geometry" />
        </mxCell>
        <mxCell id="2cNNUhlDuHHkH7qkVjv4-28" value="Container" style="rounded=0;whiteSpace=wrap;html=1;verticalAlign=top;fontFamily=Courier New;dashed=1;strokeWidth=3;fontSize=18;fontStyle=1;fillColor=none;strokeColor=#56517e;" parent="2cNNUhlDuHHkH7qkVjv4-27" vertex="1">
          <mxGeometry width="240" height="280" as="geometry" />
        </mxCell>
        <mxCell id="2cNNUhlDuHHkH7qkVjv4-29" value="" style="sketch=0;pointerEvents=1;shadow=0;dashed=0;html=1;strokeColor=#b85450;fillColor=#f8cecc;labelPosition=center;verticalLabelPosition=bottom;verticalAlign=top;outlineConnect=0;align=center;shape=mxgraph.office.devices.hard_disk;fontFamily=Courier New;" parent="2cNNUhlDuHHkH7qkVjv4-27" vertex="1">
          <mxGeometry x="20" y="190" width="40" height="54" as="geometry" />
        </mxCell>
        <mxCell id="2cNNUhlDuHHkH7qkVjv4-30" value="" style="pointerEvents=1;shadow=0;dashed=0;html=1;strokeColor=#82b366;fillColor=#d5e8d4;labelPosition=center;verticalLabelPosition=bottom;verticalAlign=top;align=center;outlineConnect=0;shape=mxgraph.veeam.ram;fontFamily=Courier New;" parent="2cNNUhlDuHHkH7qkVjv4-27" vertex="1">
          <mxGeometry x="70" y="120" width="115.24" height="60" as="geometry" />
        </mxCell>
        <mxCell id="2cNNUhlDuHHkH7qkVjv4-31" value="" style="sketch=0;pointerEvents=1;shadow=0;dashed=0;html=1;strokeColor=#d79b00;fillColor=#ffe6cc;aspect=fixed;labelPosition=center;verticalLabelPosition=bottom;verticalAlign=top;align=center;outlineConnect=0;shape=mxgraph.vvd.networks;fontFamily=Courier New;" parent="2cNNUhlDuHHkH7qkVjv4-27" vertex="1">
          <mxGeometry x="122.44999999999999" y="193.5" width="82.79" height="50.5" as="geometry" />
        </mxCell>
        <mxCell id="2cNNUhlDuHHkH7qkVjv4-32" value="" style="pointerEvents=1;shadow=0;dashed=0;html=1;strokeColor=#10739e;fillColor=#b1ddf0;labelPosition=center;verticalLabelPosition=bottom;verticalAlign=top;align=center;outlineConnect=0;shape=mxgraph.veeam.cpu;fontFamily=Courier New;" parent="2cNNUhlDuHHkH7qkVjv4-27" vertex="1">
          <mxGeometry x="20" y="40" width="60" height="60" as="geometry" />
        </mxCell>
        <mxCell id="2cNNUhlDuHHkH7qkVjv4-34" value="" style="group;fontFamily=Courier New;" parent="1" vertex="1" connectable="0">
          <mxGeometry x="585" y="40" width="240" height="280" as="geometry" />
        </mxCell>
        <mxCell id="2cNNUhlDuHHkH7qkVjv4-35" value="Lambda" style="rounded=0;whiteSpace=wrap;html=1;verticalAlign=top;fontFamily=Courier New;dashed=1;strokeWidth=3;fontSize=18;fontStyle=1;fillColor=none;strokeColor=#56517e;" parent="2cNNUhlDuHHkH7qkVjv4-34" vertex="1">
          <mxGeometry width="240" height="280" as="geometry" />
        </mxCell>
        <mxCell id="2cNNUhlDuHHkH7qkVjv4-37" value="" style="pointerEvents=1;shadow=0;dashed=0;html=1;strokeColor=#82b366;fillColor=#d5e8d4;labelPosition=center;verticalLabelPosition=bottom;verticalAlign=top;align=center;outlineConnect=0;shape=mxgraph.veeam.ram;fontFamily=Courier New;" parent="2cNNUhlDuHHkH7qkVjv4-34" vertex="1">
          <mxGeometry x="70" y="120" width="115.24" height="60" as="geometry" />
        </mxCell>
        <mxCell id="2cNNUhlDuHHkH7qkVjv4-39" value="" style="pointerEvents=1;shadow=0;dashed=0;html=1;strokeColor=#10739e;fillColor=#b1ddf0;labelPosition=center;verticalLabelPosition=bottom;verticalAlign=top;align=center;outlineConnect=0;shape=mxgraph.veeam.cpu;fontFamily=Courier New;" parent="2cNNUhlDuHHkH7qkVjv4-34" vertex="1">
          <mxGeometry x="20" y="40" width="60" height="60" as="geometry" />
        </mxCell>
        <mxCell id="XDAs-iwbnUAO_F27hlxs-1" value="" style="sketch=0;html=1;dashed=0;whitespace=wrap;fillColor=#d0cee2;strokeColor=#56517e;points=[[0.005,0.63,0],[0.1,0.2,0],[0.9,0.2,0],[0.5,0,0],[0.995,0.63,0],[0.72,0.99,0],[0.5,1,0],[0.28,0.99,0]];verticalLabelPosition=bottom;align=center;verticalAlign=top;shape=mxgraph.kubernetes.icon;prIcon=api;fontFamily=Courier New;" parent="2cNNUhlDuHHkH7qkVjv4-34" vertex="1">
          <mxGeometry x="19.99999999999997" y="190" width="83.33" height="80" as="geometry" />
        </mxCell>
      </root>
    </mxGraphModel>
  </diagram>
  <diagram id="5TpADSfI7P4AqyXdv3PP" name="Containers">
    <mxGraphModel dx="1426" dy="862" grid="1" gridSize="10" guides="1" tooltips="1" connect="1" arrows="1" fold="1" page="1" pageScale="1" pageWidth="850" pageHeight="1100" math="0" shadow="0">
      <root>
        <mxCell id="0" />
        <mxCell id="1" parent="0" />
        <mxCell id="qKyFCv9RZSml1D6qCwIY-2" value="OS" style="rounded=1;whiteSpace=wrap;html=1;fillColor=#f8cecc;strokeColor=#b85450;fontFamily=Courier New;" parent="1" vertex="1">
          <mxGeometry x="40" y="290" width="400" height="50" as="geometry" />
        </mxCell>
        <mxCell id="qKyFCv9RZSml1D6qCwIY-3" value="Debian" style="rounded=1;whiteSpace=wrap;html=1;fillColor=#d5e8d4;strokeColor=#82b366;fontFamily=Courier New;" parent="1" vertex="1">
          <mxGeometry x="40" y="120" width="120" height="120" as="geometry" />
        </mxCell>
        <mxCell id="qKyFCv9RZSml1D6qCwIY-6" value="Mariadb" style="rounded=1;whiteSpace=wrap;html=1;fillColor=#e1d5e7;strokeColor=#9673a6;fontFamily=Courier New;" parent="1" vertex="1">
          <mxGeometry x="180" y="120" width="120" height="120" as="geometry" />
        </mxCell>
        <mxCell id="qKyFCv9RZSml1D6qCwIY-7" value="Alpine" style="rounded=1;whiteSpace=wrap;html=1;fillColor=#fff2cc;strokeColor=#d6b656;fontFamily=Courier New;" parent="1" vertex="1">
          <mxGeometry x="320" y="120" width="120" height="120" as="geometry" />
        </mxCell>
        <mxCell id="qKyFCv9RZSml1D6qCwIY-11" style="edgeStyle=orthogonalEdgeStyle;rounded=0;orthogonalLoop=1;jettySize=auto;html=1;entryX=0.625;entryY=0.988;entryDx=0;entryDy=0;entryPerimeter=0;curved=1;fillColor=#ffe6cc;strokeColor=#d79b00;fontFamily=Courier New;" parent="1" source="qKyFCv9RZSml1D6qCwIY-9" target="qKyFCv9RZSml1D6qCwIY-10" edge="1">
          <mxGeometry relative="1" as="geometry" />
        </mxCell>
        <mxCell id="qKyFCv9RZSml1D6qCwIY-9" value="Dockerfile" style="shape=card;whiteSpace=wrap;html=1;fillColor=#fff2cc;strokeColor=#d6b656;fontFamily=Courier New;" parent="1" vertex="1">
          <mxGeometry x="470" y="180" width="80" height="100" as="geometry" />
        </mxCell>
        <mxCell id="qKyFCv9RZSml1D6qCwIY-12" style="edgeStyle=orthogonalEdgeStyle;rounded=0;orthogonalLoop=1;jettySize=auto;html=1;entryX=0.5;entryY=0;entryDx=0;entryDy=0;curved=1;fillColor=#fff2cc;strokeColor=#d6b656;fontFamily=Courier New;" parent="1" source="qKyFCv9RZSml1D6qCwIY-10" target="qKyFCv9RZSml1D6qCwIY-7" edge="1">
          <mxGeometry relative="1" as="geometry" />
        </mxCell>
        <mxCell id="qKyFCv9RZSml1D6qCwIY-10" value="Image" style="ellipse;whiteSpace=wrap;html=1;aspect=fixed;fillColor=#fff2cc;strokeColor=#d6b656;fontFamily=Courier New;" parent="1" vertex="1">
          <mxGeometry x="460" y="10" width="80" height="80" as="geometry" />
        </mxCell>
        <mxCell id="1PrrK5SQvEQ7fHy_k1fL-1" value="Container runtime&amp;nbsp;" style="rounded=1;whiteSpace=wrap;html=1;fillColor=#dae8fc;strokeColor=#6c8ebf;fontFamily=Courier New;" parent="1" vertex="1">
          <mxGeometry x="40" y="240" width="400" height="50" as="geometry" />
        </mxCell>
      </root>
    </mxGraphModel>
  </diagram>
  <diagram name="Lambda" id="nwYypm4nwK7ouUDu6yHB">
    <mxGraphModel dx="1426" dy="862" grid="1" gridSize="10" guides="1" tooltips="1" connect="1" arrows="1" fold="1" page="1" pageScale="1" pageWidth="850" pageHeight="1100" math="0" shadow="0">
      <root>
        <mxCell id="5Ubq4ycv5s2cQbGYxZe1-0" />
        <mxCell id="5Ubq4ycv5s2cQbGYxZe1-1" parent="5Ubq4ycv5s2cQbGYxZe1-0" />
        <mxCell id="5Ubq4ycv5s2cQbGYxZe1-2" value="OS" style="rounded=1;whiteSpace=wrap;html=1;fillColor=#f8cecc;strokeColor=#b85450;fontFamily=Courier New;" parent="5Ubq4ycv5s2cQbGYxZe1-1" vertex="1">
          <mxGeometry x="20" y="230" width="120" height="50" as="geometry" />
        </mxCell>
        <mxCell id="5Ubq4ycv5s2cQbGYxZe1-3" value="Python&lt;span style=&quot;white-space: pre;&quot;&gt;&#x9;&lt;/span&gt;" style="rounded=1;whiteSpace=wrap;html=1;fillColor=#d5e8d4;strokeColor=#82b366;fontFamily=Courier New;" parent="5Ubq4ycv5s2cQbGYxZe1-1" vertex="1">
          <mxGeometry x="20" y="60" width="120" height="120" as="geometry" />
        </mxCell>
        <mxCell id="5Ubq4ycv5s2cQbGYxZe1-4" value="Go" style="rounded=1;whiteSpace=wrap;html=1;fillColor=#e1d5e7;strokeColor=#9673a6;fontFamily=Courier New;" parent="5Ubq4ycv5s2cQbGYxZe1-1" vertex="1">
          <mxGeometry x="145" y="60" width="120" height="120" as="geometry" />
        </mxCell>
        <mxCell id="5Ubq4ycv5s2cQbGYxZe1-5" value="Js" style="rounded=1;whiteSpace=wrap;html=1;fillColor=#fff2cc;strokeColor=#d6b656;fontFamily=Courier New;" parent="5Ubq4ycv5s2cQbGYxZe1-1" vertex="1">
          <mxGeometry x="270" y="60" width="120" height="120" as="geometry" />
        </mxCell>
        <mxCell id="5Ubq4ycv5s2cQbGYxZe1-6" style="edgeStyle=orthogonalEdgeStyle;rounded=0;orthogonalLoop=1;jettySize=auto;html=1;entryX=0.5;entryY=0;entryDx=0;entryDy=0;curved=1;fillColor=#ffe6cc;strokeColor=#d79b00;exitX=0;exitY=0;exitDx=30;exitDy=0;exitPerimeter=0;fontFamily=Courier New;" parent="5Ubq4ycv5s2cQbGYxZe1-1" source="5Ubq4ycv5s2cQbGYxZe1-7" target="5Ubq4ycv5s2cQbGYxZe1-5" edge="1">
          <mxGeometry relative="1" as="geometry">
            <mxPoint x="490" y="29.039999999999964" as="targetPoint" />
            <Array as="points">
              <mxPoint x="435" y="10" />
              <mxPoint x="330" y="10" />
            </Array>
          </mxGeometry>
        </mxCell>
        <mxCell id="5Ubq4ycv5s2cQbGYxZe1-7" value="Js" style="shape=card;whiteSpace=wrap;html=1;fillColor=#fff2cc;strokeColor=#d6b656;fontFamily=Courier New;" parent="5Ubq4ycv5s2cQbGYxZe1-1" vertex="1">
          <mxGeometry x="405" y="70" width="80" height="100" as="geometry" />
        </mxCell>
        <mxCell id="G_jwxQOTeA-Ha-H263Mu-0" value="Lamdba scheduler" style="rounded=1;whiteSpace=wrap;html=1;fillColor=#bac8d3;strokeColor=#23445d;fontFamily=Courier New;" parent="5Ubq4ycv5s2cQbGYxZe1-1" vertex="1">
          <mxGeometry x="20" y="180" width="440" height="50" as="geometry" />
        </mxCell>
        <mxCell id="Nbl74Dq2WKcuWvNSHsMT-0" value="OS" style="rounded=1;whiteSpace=wrap;html=1;fillColor=#f8cecc;strokeColor=#b85450;fontFamily=Courier New;" parent="5Ubq4ycv5s2cQbGYxZe1-1" vertex="1">
          <mxGeometry x="140" y="230" width="50" height="50" as="geometry" />
        </mxCell>
        <mxCell id="Nbl74Dq2WKcuWvNSHsMT-1" value="OS" style="rounded=1;whiteSpace=wrap;html=1;fillColor=#f8cecc;strokeColor=#b85450;fontFamily=Courier New;" parent="5Ubq4ycv5s2cQbGYxZe1-1" vertex="1">
          <mxGeometry x="190" y="230" width="90" height="50" as="geometry" />
        </mxCell>
        <mxCell id="Nbl74Dq2WKcuWvNSHsMT-4" value="OS" style="rounded=1;whiteSpace=wrap;html=1;fillColor=#f8cecc;strokeColor=#b85450;fontFamily=Courier New;" parent="5Ubq4ycv5s2cQbGYxZe1-1" vertex="1">
          <mxGeometry x="280" y="230" width="180" height="50" as="geometry" />
        </mxCell>
      </root>
    </mxGraphModel>
  </diagram>
  <diagram id="hR_kbELWZGcoqMnQZNhY" name="Machines virtuelles">
    <mxGraphModel dx="1426" dy="862" grid="1" gridSize="10" guides="1" tooltips="1" connect="1" arrows="1" fold="1" page="1" pageScale="1" pageWidth="850" pageHeight="1100" math="0" shadow="0">
      <root>
        <mxCell id="0" />
        <mxCell id="1" parent="0" />
        <mxCell id="ovMS_j8gLA07QqTpF-_L-1" value="OS" style="rounded=1;whiteSpace=wrap;html=1;fillColor=#f8cecc;strokeColor=#b85450;fontFamily=Courier New;" parent="1" vertex="1">
          <mxGeometry x="60" y="350" width="400" height="50" as="geometry" />
        </mxCell>
        <mxCell id="ovMS_j8gLA07QqTpF-_L-9" value="Hyperviseur" style="rounded=1;whiteSpace=wrap;html=1;fillColor=#dae8fc;strokeColor=#6c8ebf;fontFamily=Courier New;" parent="1" vertex="1">
          <mxGeometry x="60" y="250" width="400" height="50" as="geometry" />
        </mxCell>
        <mxCell id="ovMS_j8gLA07QqTpF-_L-10" value="OS" style="rounded=1;whiteSpace=wrap;html=1;fillColor=#f8cecc;strokeColor=#b85450;fontFamily=Courier New;" parent="1" vertex="1">
          <mxGeometry x="60" y="200" width="70" height="50" as="geometry" />
        </mxCell>
        <mxCell id="ovMS_j8gLA07QqTpF-_L-12" value="OS" style="rounded=1;whiteSpace=wrap;html=1;fillColor=#f8cecc;strokeColor=#b85450;fontFamily=Courier New;" parent="1" vertex="1">
          <mxGeometry x="130" y="200" width="70" height="50" as="geometry" />
        </mxCell>
        <mxCell id="ovMS_j8gLA07QqTpF-_L-13" value="OS" style="rounded=1;whiteSpace=wrap;html=1;fillColor=#f8cecc;strokeColor=#b85450;fontFamily=Courier New;" parent="1" vertex="1">
          <mxGeometry x="200" y="200" width="70" height="50" as="geometry" />
        </mxCell>
        <mxCell id="ovMS_j8gLA07QqTpF-_L-14" value="OS" style="rounded=1;whiteSpace=wrap;html=1;fillColor=#f8cecc;strokeColor=#b85450;fontFamily=Courier New;" parent="1" vertex="1">
          <mxGeometry x="340" y="200" width="70" height="50" as="geometry" />
        </mxCell>
        <mxCell id="ovMS_j8gLA07QqTpF-_L-15" value="Emulateur" style="rounded=1;whiteSpace=wrap;html=1;fillColor=#fff2cc;strokeColor=#d6b656;fontFamily=Courier New;" parent="1" vertex="1">
          <mxGeometry x="60" y="300" width="400" height="50" as="geometry" />
        </mxCell>
      </root>
    </mxGraphModel>
  </diagram>
  <diagram id="EkQ8_xEbANSkBM2VnJJG" name="Perf vs sécurité">
    <mxGraphModel dx="983" dy="594" grid="1" gridSize="10" guides="1" tooltips="1" connect="1" arrows="1" fold="1" page="1" pageScale="1" pageWidth="850" pageHeight="1100" math="0" shadow="0">
      <root>
        <mxCell id="0" />
        <mxCell id="1" parent="0" />
        <mxCell id="aafN45UgaEi475MRomIP-4" style="edgeStyle=orthogonalEdgeStyle;rounded=0;orthogonalLoop=1;jettySize=auto;html=1;entryX=0.5;entryY=0;entryDx=0;entryDy=0;curved=1;exitX=0.5;exitY=0;exitDx=0;exitDy=0;strokeWidth=3;fillColor=#f8cecc;strokeColor=#b85450;endArrow=block;endFill=1;" edge="1" parent="1" source="aafN45UgaEi475MRomIP-2" target="aafN45UgaEi475MRomIP-3">
          <mxGeometry relative="1" as="geometry">
            <Array as="points">
              <mxPoint x="330" y="20" />
              <mxPoint x="520" y="20" />
            </Array>
          </mxGeometry>
        </mxCell>
        <mxCell id="aafN45UgaEi475MRomIP-2" value="Performance" style="rounded=1;whiteSpace=wrap;html=1;fontFamily=Courier New;fillColor=#f8cecc;strokeColor=#b85450;" vertex="1" parent="1">
          <mxGeometry x="270" y="80" width="120" height="80" as="geometry" />
        </mxCell>
        <mxCell id="aafN45UgaEi475MRomIP-5" style="edgeStyle=orthogonalEdgeStyle;rounded=0;orthogonalLoop=1;jettySize=auto;html=1;entryX=0.5;entryY=1;entryDx=0;entryDy=0;curved=1;exitX=0.5;exitY=1;exitDx=0;exitDy=0;fillColor=#e1d5e7;strokeColor=#9673a6;strokeWidth=3;endArrow=block;endFill=1;" edge="1" parent="1" source="aafN45UgaEi475MRomIP-3" target="aafN45UgaEi475MRomIP-2">
          <mxGeometry relative="1" as="geometry">
            <Array as="points">
              <mxPoint x="520" y="220" />
              <mxPoint x="330" y="220" />
            </Array>
          </mxGeometry>
        </mxCell>
        <mxCell id="aafN45UgaEi475MRomIP-3" value="Ajout de couches de sécurité" style="rounded=1;whiteSpace=wrap;html=1;fontFamily=Courier New;fillColor=#e1d5e7;strokeColor=#9673a6;" vertex="1" parent="1">
          <mxGeometry x="430" y="80" width="180" height="80" as="geometry" />
        </mxCell>
        <mxCell id="aafN45UgaEi475MRomIP-7" style="edgeStyle=orthogonalEdgeStyle;rounded=0;orthogonalLoop=1;jettySize=auto;html=1;entryX=0;entryY=0.5;entryDx=0;entryDy=0;fillColor=#d5e8d4;strokeColor=#82b366;strokeWidth=3;endArrow=block;endFill=1;" edge="1" parent="1" source="aafN45UgaEi475MRomIP-6" target="aafN45UgaEi475MRomIP-2">
          <mxGeometry relative="1" as="geometry" />
        </mxCell>
        <mxCell id="aafN45UgaEi475MRomIP-6" value="Conception naive" style="rounded=1;whiteSpace=wrap;html=1;fontFamily=Courier New;fillColor=#d5e8d4;strokeColor=#82b366;" vertex="1" parent="1">
          <mxGeometry x="80" y="80" width="140" height="80" as="geometry" />
        </mxCell>
        <mxCell id="aafN45UgaEi475MRomIP-8" value="C" style="text;html=1;strokeColor=none;fillColor=none;align=center;verticalAlign=middle;whiteSpace=wrap;rounded=0;" vertex="1" parent="1">
          <mxGeometry x="80" y="190" width="40" height="30" as="geometry" />
        </mxCell>
        <mxCell id="aafN45UgaEi475MRomIP-9" value="MSDOS" style="text;html=1;strokeColor=none;fillColor=none;align=center;verticalAlign=middle;whiteSpace=wrap;rounded=0;" vertex="1" parent="1">
          <mxGeometry x="130" y="190" width="40" height="30" as="geometry" />
        </mxCell>
        <mxCell id="aafN45UgaEi475MRomIP-10" value="Hyperthreading" style="text;html=1;strokeColor=none;fillColor=none;align=center;verticalAlign=middle;whiteSpace=wrap;rounded=0;" vertex="1" parent="1">
          <mxGeometry x="270" y="210" width="100" height="30" as="geometry" />
        </mxCell>
        <mxCell id="aafN45UgaEi475MRomIP-11" value="Linux" style="text;html=1;strokeColor=none;fillColor=none;align=center;verticalAlign=middle;whiteSpace=wrap;rounded=0;" vertex="1" parent="1">
          <mxGeometry x="280" y="240" width="40" height="30" as="geometry" />
        </mxCell>
        <mxCell id="aafN45UgaEi475MRomIP-12" value="Rust" style="text;html=1;strokeColor=none;fillColor=none;align=center;verticalAlign=middle;whiteSpace=wrap;rounded=0;" vertex="1" parent="1">
          <mxGeometry x="650" y="170" width="40" height="30" as="geometry" />
        </mxCell>
        <mxCell id="aafN45UgaEi475MRomIP-13" value="Performant et sécurisé" style="rounded=1;whiteSpace=wrap;html=1;fontFamily=Courier New;fillColor=#dae8fc;strokeColor=#6c8ebf;" vertex="1" parent="1">
          <mxGeometry x="650" y="80" width="180" height="80" as="geometry" />
        </mxCell>
        <mxCell id="aafN45UgaEi475MRomIP-14" value="BSD" style="text;html=1;strokeColor=none;fillColor=none;align=center;verticalAlign=middle;whiteSpace=wrap;rounded=0;" vertex="1" parent="1">
          <mxGeometry x="680" y="190" width="50" height="30" as="geometry" />
        </mxCell>
        <mxCell id="aafN45UgaEi475MRomIP-15" value="C++" style="text;html=1;strokeColor=none;fillColor=none;align=center;verticalAlign=middle;whiteSpace=wrap;rounded=0;" vertex="1" parent="1">
          <mxGeometry x="460" y="220" width="40" height="30" as="geometry" />
        </mxCell>
        <mxCell id="aafN45UgaEi475MRomIP-16" value="Containers" style="text;html=1;strokeColor=none;fillColor=none;align=center;verticalAlign=middle;whiteSpace=wrap;rounded=0;" vertex="1" parent="1">
          <mxGeometry x="710" y="170" width="90" height="30" as="geometry" />
        </mxCell>
        <mxCell id="aafN45UgaEi475MRomIP-17" value="VMs" style="text;html=1;strokeColor=none;fillColor=none;align=center;verticalAlign=middle;whiteSpace=wrap;rounded=0;" vertex="1" parent="1">
          <mxGeometry x="510" y="200" width="40" height="30" as="geometry" />
        </mxCell>
      </root>
    </mxGraphModel>
  </diagram>
</mxfile>
